/* XPM */
static char *collect_crystal[] = {
/* columns rows colors chars-per-pixel */
"64 64 213 2 ",
"   c #00111F",
".  c #001324",
"X  c #001B29",
"o  c #011C39",
"O  c #00242C",
"+  c #022C2E",
"@  c #062729",
"#  c #06372D",
"$  c #012539",
"%  c #033431",
"&  c #053B30",
"*  c #0C3E37",
"=  c #0C452D",
"-  c #0D4C2F",
";  c #0F512E",
":  c #12552E",
">  c #15592D",
",  c #1A5D2D",
"<  c #1A502F",
"1  c #074130",
"2  c #084430",
"3  c #0C4B30",
"4  c #164C33",
"5  c #2A522F",
"6  c #375D27",
"7  c #2A563B",
"8  c #2E5738",
"9  c #1D622C",
"0  c #22652C",
"q  c #256A2B",
"w  c #2A6D2B",
"e  c #38672D",
"r  c #2E722A",
"t  c #327529",
"y  c #367929",
"u  c #3B7D29",
"i  c #3A7A29",
"p  c #346533",
"a  c #43662A",
"s  c #446627",
"d  c #516D2D",
"f  c #487D2C",
"g  c #487834",
"h  c #416735",
"j  c #001B42",
"k  c #012444",
"l  c #00254C",
"z  c #00294F",
"x  c #0A3448",
"c  c #002C52",
"v  c #002E5C",
"b  c #00335D",
"n  c #053656",
"m  c #003662",
"M  c #003964",
"N  c #003C6B",
"B  c #033866",
"V  c #003E75",
"C  c #184B4F",
"Z  c #255D54",
"A  c #21514B",
"S  c #296258",
"D  c #356B4F",
"F  c #00406E",
"G  c #004372",
"H  c #00457B",
"J  c #014B7B",
"K  c #06537C",
"L  c #0E5472",
"P  c #286A66",
"I  c #346C62",
"U  c #347169",
"Y  c #297676",
"T  c #2B7367",
"R  c #447D55",
"E  c #3F8028",
"W  c #448429",
"Q  c #49872B",
"!  c #4D8A2A",
"~  c #538E2C",
"^  c #51802C",
"/  c #56912B",
"(  c #5B942C",
")  c #5F982C",
"_  c #568E30",
"`  c #5B8D35",
"'  c #5D9330",
"]  c #5B923B",
"[  c #488536",
"{  c #60972D",
"}  c #649A2D",
"|  c #6A9D2E",
" . c #629632",
".. c #669932",
"X. c #6B9D33",
"o. c #719F36",
"O. c #719F38",
"+. c #6CA12E",
"@. c #72A32E",
"#. c #6FA031",
"$. c #73A233",
"%. c #7AA634",
"&. c #7DA835",
"*. c #75A238",
"=. c #7AA53A",
"-. c #7CA838",
";. c #398355",
":. c #3F837C",
">. c #418345",
",. c #4D884A",
"<. c #82AB38",
"1. c #004D83",
"2. c #004985",
"3. c #045483",
"4. c #00528B",
"5. c #075B8A",
"6. c #005591",
"7. c #015C95",
"8. c #005E9B",
"9. c #01629D",
"0. c #066597",
"q. c #0A6A8F",
"w. c #005EA1",
"e. c #0064A3",
"r. c #006AA6",
"t. c #006DA9",
"y. c #0174AB",
"u. c #0179AD",
"i. c #0776A7",
"p. c #167AAB",
"a. c #027BB3",
"s. c #0074B0",
"d. c #2E8892",
"f. c #0581B6",
"g. c #0887B9",
"h. c #1693BF",
"j. c #1B8AB2",
"k. c #2C8DBC",
"l. c #278CB1",
"z. c #0C94C1",
"x. c #0C9AC4",
"c. c #139DC5",
"v. c #1495C0",
"b. c #0A8EC0",
"n. c #299EC5",
"m. c #14A3CA",
"M. c #17A6CB",
"N. c #1AADD1",
"B. c #1DB3D5",
"V. c #0CA0C9",
"C. c #37A5CA",
"Z. c #24B2D4",
"A. c #23BCDA",
"S. c #29B6D6",
"D. c #38B6D6",
"F. c #2EAFD0",
"G. c #45A9CB",
"H. c #47AACC",
"J. c #4AAFD0",
"K. c #4AB1D0",
"L. c #49B9D7",
"P. c #46BCDA",
"I. c #5ABBD5",
"U. c #76BED2",
"Y. c #26C2DE",
"T. c #2AC3DF",
"R. c #36C3DE",
"E. c #2BC6E0",
"W. c #2DC9E2",
"Q. c #27C5E0",
"!. c #33CCE4",
"~. c #3ACDE4",
"^. c #34C6E1",
"/. c #3CD1E6",
"(. c #3CD4E8",
"). c #52C4DE",
"_. c #44CDE3",
"`. c #4BCBE3",
"'. c #51C9E0",
"]. c #43D2E6",
"[. c #45D4E9",
"{. c #4BD6E9",
"}. c #4BD5E8",
"|. c #5BD6E9",
" X c #54DAEA",
".X c #58DAEA",
"XX c #7CCEE4",
"oX c #63DCEC",
"OX c #6ADCED",
"+X c #7BDFF3",
"@X c #6DCDE4",
"#X c #6AE1EF",
"$X c #72E3EF",
"%X c #78E2EF",
"&X c #7DE6F1",
"*X c #75E2F0",
"=X c #86DCEC",
"-X c #8CEEF9",
";X c #88EAF5",
":X c #96E9F5",
">X c #98F2FA",
",X c #8CE1EE",
"<X c #AAF5FA",
"1X c #A3F3FA",
"2X c #B3FAFD",
"3X c #BBFCFE",
"4X c #B8F4F9",
"5X c #A6EDF5",
"6X c #C3FBFD",
"7X c #CEFDFE",
"8X c #D5FCFD",
"9X c #E8FDFE",
"0X c #FDFFFF",
/* pixels */
"~ '  . . .X.' ' ' _ ~ [  ... ..... .X.........X. .' '  .X... . .' X.O...X.X..... . .X.X. .` `  . .' ' ` ! _ ~ ~ [ ~ _ _ _ ~ _ Q ",
" .' ' ..X. . .' ' _ _ _ ' ' ' _ _ Q `  ._ ` _  . . . .X.X. . .X. .' ..X.....O.O. . .X.` _ _ Q _ _ Q Q Q [ W ~ _ _ Q _ Q [ ~ _ Q ",
"_ ' ' _  . . ....... .' .. ._ ! _ ' _ _ ' ' ~ _ ' O.X.X...'  .,.R R ' .. .' ..O.` ~ _ Q ~ ~ ~ [ _  ._ _ _ _ _ X.X..._ ~ ' ' ' _ ",
"..X. . .X.......O.X.O...O.X.X... .O.X. . . . .X.X. .' `  . .` L n.k.D } ` _ _ `  . .' ` ` .. . .X.O.O.X.X.O. ...X.O.` _ ' '  ...",
"X... ...X... ._  .X. .' X.O.O.O.O.=.O.O.O.X.X.X. . . .` } ` Z y.'.=Xl.>.( _ ( ( O.O.X.X.X.o.O.O.O.O.*.X.O.X. . . .X...'  .......",
"'  ._ _ ~ ' _ ~ _ ~ _ _ ` .. ...=.=.=.X.X.X.X.{ '  .{ | ` A u.x.R.<X:Xp.;.( _ ' X.O.O.O.O.O.O.O. .O.X._ ' [ ' ' `  . .{ ~ ' _ _ ",
".. . ...' ' '  .~ ' ' ' ' / _ ' .... . ._ _ ' ' _ ' ....7 i.f.M.Q.OX6X,Xl.g ' ~ ' { X.....X.O. .' ` _ Q Q Q ! '  .(  .` ~ _  . .",
"..X.*.....X.X.X.X.X...X...' _ _ ` ~ ~  .' .. .{ .. . .A i.a.i.D.E._.>X>X&Xl.[ ' _ ' ` .... .....X...' ' _ ' ' '  . . .X.} ..X. .",
" . .X.X.O.O.o.o.X.X.*.o.O.$...X. . .' o.O.=.o.O.o...8 7.b.r.v.^.B.E.-X1X<X*Xl.' { } ..X.X.......X.X......... ...X.X.X.X. ...X. .",
"' _  .X.} ..o. ...O.O.*.o.$.X. .o.O.X.O...X.O.o.{ 8 q.b.r.i.Z.B.N.A.OX2X>X2X:Xd. .o.o.o.=.O.X.' ' ' '  .X.X.X.X.X... .} X. .' ' ",
"_ ~ ^ ~ _ _ { ~ ~ X...' X... .'  ...{ .._ Q _ ' p 5.a.r.w.v.!.B.Q.!..X2X>X>X2XXXq.X.O.O.O.=.=.X. ._ _ ' X.*...' _ ~ _ _  .~ ! _ ",
"( _ ! ~ ~ ! ~ ! ! ' _ ' (  .~ ' { '  ..._ _ ' f F h.r.r.r.F./.~. X~./.1X>X;X>X2X=XU | o.X._ ' X.' .. .' X.X...X.X... ._  .~ ~ Q ",
"~ ~ ~  .~ ' X.' ~ ( { X.O...X.O.=.O.O.O. .} o.8 K r.r.r.f.`./. X.X[.!.>X3X-X;X>X8X=XT  ..._ ~ ~  .X... . ...#.*.*.*.O.X.X.X. . .",
"*.' ' X./ ..o...X.X.*.*.=.*.=.-.-.=.=.O.o.o.h 2.r.e.r.e.F. X~..X X.X[.$X6X-X-X-X:X4XU.Z ]  .o.O.*..... . .X.*.X.$.*.*.%.X.X.X.X.",
"*.$.X.X.| o.o.@.*.%.<.X.X.*.*.O.O.=.X.X.O.g 3.r.r.e.e.i.'.~.!.{. X.X}.oX7X1X-X-X:X3X2Xl.Y ..o.o.#. ...} X...X...} ..X.X.....X.X.",
"X.*.$.*.$.$.o.o.| o.$.X.} { _ ( o.{ ( o.` x t.s.r.r.r.n..XY.^.[..X.X X}.5X6X-X-X6X7X|.D.Y ( (  .....#.( ' ! ( ( ( ( _ _ }  . .( ",
"| o.| X.o.o.| | | | o...{ { _ ! ~ ~ ~ $.h j N y.t.t.g.,XOX[. X}..X X{.[.5X9X-X5X8XOXA.`.T ~ ~ ! ' #.' ~ / ~ ! / ' / ~ ~ _ / / ~ ",
"} } | ..} { ~ { } | | ..| | { ~ / ( { } 6 v m N 8.r.G.2X;XoX X[. XoX{./.oX9X8X7X*XB.B.`.P ! ! ! ~ _ _ .._ ! ! ' / _ ( ' ~ ~ ' ( ",
"( ( ( / ( ~ ~ ~ / { / { { { ' { ' ....{ e b G M B q.=X2XoXW.[./.[.$X.X~. X8X0X6X^.A.B.P.Y / / ~ / ~ ..<.X.! ( / / ~ _ ( ~ ' ) ) ",
"( .._ / ~ ! ( / ~ / / d ~ _ ' | { { ' { a v G G M 5.F.G.;X[.!.!.W.[.].&X4X5X4X|.B.B.N.P.U | $.{ +.#...=.$.) ..( ..+.( ( ) +.#...",
"{ { / ~ { ~ ( { ....| } | } @.| $.} } $.a v V N G 3.m.e.G.;X}.!.W.oX2X6XOXoXoXA.B.M.A._.U @.$.$.#.#.} ) | | } | ..#.} ..#.#...) ",
"X./ { { | ..} { <.$.$...| @.| | { } | | a v F N G K c.i.r.I.>X}.oX6X<X_.Q.+XOXT.B.B.Z.Z.P @.@.| +...#.+.| } | } } +.#.#.#... .) ",
"..{ #.#.#.@.$.@.@.| | | <.@.@.| } } } X.a v F F H K c.y.y.i.).>X6X>XT.T.{.;X*XA.N.B.A.m.S } | ( _ ~ ) +.} ) } } } } ..#. . .#.| ",
"| | o.| | | | { | #.| $.| } | | | | } X.e B J 1.F K c.u.y.y.t.@X%XT.Y.^.{.&X*XA.M.S.E.M.P { } ( ~ / ( ....} | ..| ) / ! ! / ~ ) ",
"..o.#.{ | ( ( / { } } | / / ( } ..( ..} 6 V 6.H G K c.y.y.t.r.J.~.A.A.T.W.OXOXN.N.}.S.M.I @.| | | } | } | +.} } ..~ Q W W Q ! ! ",
"/ ( / { { ( ( / / ( { ( / / ( { ( ) ) / 6 V 6.V N K c.y.y.r.y.J.].A.N.A.!.$X).V.`. XN.N.I @.| | +.| | | { ) ! W / ! / ( ~ Q ( ) ",
"( / / ~ d } | { { } { } / ( @.d } #.} ( 6 V w.G B K c.r.r.y.y.K.].A.A.Q.~.;XL.S.#XT.B.S.I &.%.o.o.$.+.$.| ~ ~ / W ( ( | | ! ) +.",
"( | | / } | <.| @.} } | { | | | $.$.| +.6 H e.H B J v.e.y.a.y.K._.Q.E.!.[.&XOXoX}.M.M.S.I &.%.%.$.&.$.$.| ( ( ( ! | +.#.| ) ) ) ",
"} @.#.| %.%.<.<.<.@.| | @.<.| <.%.<.@.@.s V e.7.N K m.i.u.u.y.J./.T.T.}. X%X;X].Z.x.m.D.I %.@.@.%.%.%.%.@.( { ( } } | @.| | | | ",
"%.o.@.%.<.<.@.<.<.<.<.<.@.@.<.<.| #.&.%.s M 1.8.F K m.a.u.u.y.K./.T.]..X X#X#XT.m.V.m.F.D @.@.@.$.%.$.$.@.| ( { } } } +.X.| +.X.",
"@.<.o.%.{ | <.<.| @.<.| { } @.<.{ } } @.s m V G 4.3.c.u.y.y.y.K.R.T. X}.].oXoXN.c.m.N.m.S } } | } } } $.| } ( ( | ( ( +./ ( / X.",
"{ o.@.} { { | | { / { | } } } } } } | %.e B F B 1.0.c.y.y.r.9.H.[.R.}.[.T. X'.N.c.N.M.h.S } / ( ( ( } } ( { } / } ~ ! / ~ ~ ! / ",
"{ ( / { } / ( ( { } ) } | } | ( @.@.} @.e B J F N 5.m.y.e.e.8.H..X{.(./.T..X).m.V.M.V.z.S } / ! { ) } ) } | ) ) ) ( ( ( / ^ ( ( ",
"{ { / / / / ! ! ! } ) / ( / ( ) | %.@.<.d N J V N K c.t.9.e.8.H. X(.(.T.T..XD.h.c.x.m.z.Z { { / | } @.@.| +.+.| | | @.} } { } } ",
"/ / / { / ! / / / / +.{ ! ( } ( } @.<.<.d N 3.G G K c.r.e.e.8.G.{.(.W.T.T..X).h.c.g.g.g.Z | | } } } @.| | } +.} @.@.| | +.+.} } ",
"( ( } @.{ / @.{ { / | } / @.} } } #.$.$.a N 1.G G 3.h.r.r.r.e.G.{.!.T.T.Y..XD.x.x.x.f.f.Z | | { { / @.{ ) +.) ( } @.@.@.} } | } ",
"| @.@.@.| | @.| | | | | | @.| $.o.%.| @.s B 4.J F K c.r.t.y.r.G.{.!.T.T.Y..XL.x.x.x.f.f.Z ) +.+./ / / / ) { ( ! / | @.( / | } +.",
"| @.| | | | } } | } @.@.$.| | #.%.#.{ @.d N 4.J J J g.y.t.s.t.G.[.T.T.T.Y..XD.x.g.g.y.f.S / ! / / / / ! ! ! / / ! / ( ! / / / } ",
"} @.{ } | { ( { } } } @.+.#./ ( { / ~ { s N 4.H J 1.3.u.y.r.8.C./.T.T.T.R.R.F.m.h.x.f.f.S ( / / ! / ) ! / / / / W ! ! ( / ! ! ! ",
"' | ( ( } ! ( @.} } %.} } / / / ! / ( ( 6 N 4.G J N c 9.r.8.7.C.!.T.T.(.'.f.f.Z.m.V.g.f.S ) } ) ) / ) / ( ) ! ! ! / ) | ! ! / ! ",
"( ~ W ! ( W ( ) ( #.} ! / ) ( ( ( } { } f n 4.2.G b b G y.e.8.n.!.T.W._.p.e.y.g.S.N.g.K i ' ..) } } ) | @.) ) ) ( ( +.( / ) | / ",
"^ ~ W W / W ! / ! ! ) ( Q / #.) @.@.( { | 5 N N M b b b H y.8.h.W.W.R.j.9.y.y.y.i.i.3.D ( ! ~ / } } ) } ) } ) } } ) +.} ) | +.| ",
"! / ! f ! ! ! ! / / ..#.) Q ) #.| X.{ } @.f j N M b b b c K e.h.!.].j.9.y.y.u.y.7.1.n g } ) ..) ) ) ) } ) / | @.| | } ( ) } | / ",
"( ! ( ( ) { { ) } ) #.*.$.} ~ | @.} | @.$.o.5 l b M b b b b 1.h.(.k.9.t.y.y.u.0.4.1.C } #.$.X.( ! ) } | ) W / | ( ) / ) ) / | / ",
"} / ( | } } | ! ( ..+.) #.X.) ' X.! _ ..$.+.f $ l v M b b b M i.m.9.r.u.y.t.u.3.6.M f ) | } W W u ! / / ) / W / ! / / / ! ! ) / ",
"| } { } ) ) | ! E ~ W E ' _ E u  ./ q q ~ ~ | 5 k l b M b b b F 9.0.y.u.y.t.7.4.H A ( ( ( ! ! ! ) | ) f / / ! E W W ) W W W W W ",
"{ } | / ! ! / / i E i y u i E t t Q ' w : i / e o n l M b b M M 7.7.9.y.f.4.3.6.b p ( ( / Q } #.<.@.! u u W / ! W W W / W ! / u ",
"u / ) / u E E u E E w t E i i i : > i ' w , y ; # l c l M M b b 0.7.7.t.i.K 4.J * W W ! ! ( ) #./ W W / / u ) ) ! W W / ! / W W ",
"r t t u q r t q y r 9 y y y w E [ < : i 0 : 0 ; 2 o b l c M b b 7.7.7.7.H 6.6.l t W u E } / ! ! u u u ! ) W ) } ! ) / ) / ) ! / ",
"q r 9 9 r q q 0 9 9 , q q 9 > > i t : : : 3 : & 3 # k m l c b M 9.9.7.F N 2.2.4 ~ y y ( / i t / } / u y ! / / } ) ) / ) ) } ) ) ",
"w E 9 9 q 9 9 9 , , , , 9 > 3 : ; , , ; 3 2 2 % & 2 @ k b k c N 7.9.3.B B N x t ! u ! ( i u / { u y i u u ) ! ) ! / ) ) } | ) ) ",
"r r w 0 9 9 t q 9 , 9 9 > ; 2 3 3 & ; - & % & % % # @ O k B c B 7.4.N N N j 4 w u ! { ! t ! ( W u y W W y u W ! W ) ) / / ) ! ( ",
"r q r y u 9 t f w : 9 > > : 2 & 2 & & 2 1 + # = % + + O   o c c 4.G N N k & , , w f E y u ! u ! / ! } ) u u E W / ) ! ! / W u ! ",
"r r r w Q y i ! > w E > ; > 9 2 & & & % 1 & # # + + O .     o b 1.B c $ # > w > , y q i 9 q ! ! } } W W ! / W / ) W W ! ! f u u ",
"r u E q W ~ ! i 0 [ 0 4 9 0 > w w : & 1 = < # # + O X O X     k m o + 3 - 9 ! / w > t ! > , W W / u y u u W / W E W W W W W W u ",
"t E ( ! ! ( { Q ! [ , w r t : , ( [ ; 3 u t = = & + + $ O X   . X O & , , , 0 / ! w / i y ! ! ! ! u u u ! u y u ! W W W u W u u ",
"y t E / W ! ) ! } / W r y y y , q / , 0 y = = = Q r = # @ ; = @ # = = u / w 0 t ) / / s ) W u W ! ) / y W / W ) W y / W y y y u ",
"E E y ! W ! ) / ! / ~ ! ! W ! ~ q E W / u 0 0 9 W ! 9 > q y r q , 0 9 0 / ~ ) [ / @./ ! / q y E W ! } / u / ) ) u ! ) u y i W u ",
"E W / W ! y ! W E W ! / } ! u ( / E ) ) ) u u W y ( W y ) ! y E w W ~ y y ~ { { ) } ) ) / / / ) / W u ! / / ) ) / @.W ! ! ! u u ",
"y t ! / W y E t u W u y W ( ! ! ) / / / ( ! ! ) W Q W ! / y y E t f ( ( W ~ ~ { ) / ) / ) +.@./ / / W W / ! ! / ) } / ) ! y u u ",
"W W t u E u u y y W E y y / ! W ! ! / / ! ! / / / W W ~ W / / E W ! W / / / / ( / / } @.@.} / ! ! } } / E u ! / ! ! / W u u y u ",
"9 W u 9 y ! t q q r W y t E / } ! E / ! E W i / ( ~ / / ! ) E ! / ) E W / / ( ! W W / / } } / ! ! ! / ) W u u E W W W y ! W y y ",
"0 q y 9 0 E w : q 9 q y y y y / ! y E E y W W E / / ) / ! E W W ! ! E E ! ! ! W u W ! u ! W / / W y u ! ! u u u u u u u y y y u ",
"t 0 9 > > 9 9 > > > > 9 t t t t E y t y y W ! ! ! / / ! ! E ! y u y i i E W u E y u y y u u u W y u y u u u W u u u u y y t y E "
};
