/* XPM */
static char *crystal_xpm[] = {
"64 64 32 1",
"a c #2799b3",
"b c #2cabbb",
"c c #2389ac",
"d c #2eb2be",
"e c #45bac2",
"f c #58c2c6",
"g c #5fcac8",
"h c #35b6c0",
"i c #42b1bf",
"j c #059aa4",
"k c #0ea9af",
"l c #01d6bd",
"m c #91fedc",
"n c #09fccb",
"o c #1fcebd",
"p c #09c6ba",
"q c #6efdd9",
"r c #a6ffde",
"s c #dbffe1",
"t c #02e5c2",
"u c #0cb7b6",
"v c #49fed5",
"w c #0cd8c2",
"x c #27c5c2",
"y c #19c9c1",
"z c #36fed4",
"A c #aeffe9",
"B c #f0ffe6",
"C c #98ffe5",
"D c #01949d",
"E c #23d5c6",
"F c #018d99",
"aaabbbbaaaaaaaaabbbbaaaabbbbaaaaaaaaaabbbbaaaaaaaaaaaaaaaaabbbac",
"adefgffehhhhheeeffffhbhegfffhhhhhhhhhhfffebbheeeeehhhhhdhhefffea",
"aefeeeeefhhhhhhheeeedbefeeeeehhhhhhhhhhehhbbfehhheehhhhhdhheehha",
"bfehhheehhhhdbdhhhhhdbfehhhehhhhddddhhhddhbdehhhhehhhhdddhhhddda",
"bfehheeehhhdbdhhhhbhdbghhheehhhhdbhhhhdbdebiehhhehhhhdddhhhdbbha",
"bfeheeehhhdbbhhhhbbhbbfhheehhhhdbbhhhdbbdebiehhehhhhhdddhhhbbbda",
"bfeeeehhdddbdhhhbbbhdbehehhhhhdbbbhhddbddebihhhhhhhddddhhdbbbdha",
"beeeehhhdbddhhhdbddhdbehhhhhhdbjjdhhdddddhbdehhhhhdbdhddddbbbdha",
"aeeehhhddddhhdbbbdhhdbehhhhhdbkglkdhdddhdhadhhhhhdbdhhhdddddddha",
"aeehhhddddhhddbbbhhhdbehhhhddbjmnkbhddhdbhbdhhhhdbbhhhddddddddha",
"aehhhhdddhhdddbbdhdhbbehhhdddkomnpkdhhhdbhbdhhhdbbdhhhddddddbbha",
"aehhddddhhhdbbdddddhbbehhddhdjqrnnkbhdddddbdhddbbdhhddbbdddbbbha",
"ahhdbbdhhddbbbddbddhdbehddddkoqsntukddddhhbbhdbbbddddbbdddbbbhha",
"ahhbbdhhdbbbbdddddhhdbhdddhukvqsnttkkhdhhhbdhbbbddddbbbddbbddhha",
"bedddhdddbbbddbddhhhdbhddhduovqsntwukdhxxxbdhbdhdbbbbdddddddhhha",
"behhhhdbbbbddbddhhdhdbxhhxukvvvsnntwkdxxdxbdhdhhdbbbdddddddhdbda",
"bhhhhdbbbbdbbddhhddhdbxhxxuovvqsnntwukoxdxbdhhhdbbbdddddddhdbbha",
"behhhbbbdddbddhhdddhdbxxxpkvvvrsnntwwjuyyxbhhhdbbbdddddddhdbbbha",
"behdbbbdddbddhhddddhdbxxyuovvqrsnntwwuupyxuhhddbbddbbbddhdbbbdha",
"bhhddbdhddddhhhdddhxduxxpkvvqrrsnnntwwjuyxudxddddddbbddhhddddhha",
"behdddedeeedhhdhhhhxduxxupvqrrrsnnntwwuupyuhxhhhhhhdddddddddddba",
"caaaaaaaaaaaaaaaabbbkkuukzvrrrrsnnntwlwkkukkkbbbbaaaaaaaaaaaaaac",
"adhefffehhhdddhhhxxxpuwpdvmrrrABnnnntwwuupupyxxxxddddddddddeedda",
"bhfeeeeehdhddddhhxxypppdCvmrrABBnnnntwwtkuppxxxxhddddddbbdddbbda",
"beehhhhhdddddddhhhdypppdAAqrABBmnnnntwwtkupyxxyyhhddddbbbbbbbbda",
"bfehhhhddddbddhhdddyppluzssAABBmnnnntnnpjppyxyyxxddddbbbbbbbbbda",
"behhehddddbddhhhdddyyllunzABBArmnnnnnnpujppwwyxxhddddbbbbbbbbbda",
"behehddddddddhhdddhxyllunnzABBAmnnzztpuujplwyyxxdddddbbbbbbbbbda",
"aeehddddddddhhddddxxwllunnnvqBBmvvttpuuujplwwyyyhdddddbbbbbbbbda",
"aehddddddddhdddddhxxwwlunnnzvvqAztwpuuuujpwwwyyyuuddddbbbbbbbbda",
"aehdddbdddhhddddhxxywwlknnnvvzvAntlpuuuujpwwwyyyuudddbbbbbbbbbda",
"aehddbbbdhddddddhxyywwlknnnvvzvAntlpuuuuDpwwwyypuddddbbbbbbbbbba",
"aehdbbbddddbdddhhxyywwlkvnnvvzvAntluuuuuDpwwwyypudddbbbdbbbbbbda",
"bhdbbbddddbbbddhdxywwwlbqnnvvzvAntlpuuuuDpwwwyypuddbbddbbbbbbdda",
"bhdbbbdddbbbbddddxxEwwlbqnnvvzvAntlwpuuuDpwwwyyyyduddddbbbbbbdda",
"bhdddddbbbbbddddhxxwwwlbqnnvvzvAntlwpuuuDpwwwyyyyuudddbbbbbddbba",
"bhdddddbbbbdddddxxyywwlbqnnvvzvAntlwpuuuDpwwwwyyuuddddbbbbbdbbba",
"bdhddbbbbbdddddhxxyywwlbqnnvvzvAntlwpuuuDpwwwwypuudddbbbbbdbbbba",
"behddbbbddbdddhxxupywwluvznzvzvAntlwpuulkpwwwwppudddbbbbbdbbbbba",
"behdbbbdddbbddhhupywwltlkqzvzzvAntllputkpnlwwypppddbbbbbdbbbbhba",
"behddddhdddddhhhxyyEwlnwuqmqvvvAntttttlklnlwwyyyyuddbbbdbbbbdhba",
"behhddhddddhhhhxxxEwwlnnwknzCCvAntnnpuDpnnltwwwxxhddddddddddbbba",
"caaaaaaaaabbbbbuupywwlttlknnznCAnnpuukDptwllwppuukbbaaaaaaaaaaac",
"adheffeehhhhhhxxxEwtttnnntknnnnCnpuuuFpnntlwwwwyxxxhddddddddddda",
"adfehhhehhhhhhhxxxwtttnnntktnnnvtuuukDlnnntwwwyyxhddddbbddddbdda",
"beehhhehhddhdddxxxwwttnnnntknnnztuuuFpttlnttwwyyxhdddbbbbbbbbbda",
"bfehhhhhhhhdddhxxxywtltttntktnnztuukDltlllpwwyyxxhddbbbbbbbbbbba",
"behhhhhhhhdddhhxxyppppwtttnoknnztuuFltwllpppppyxdddbbbbbbbbbbbba",
"aehhhhhhhddddhhhhuuupplwttnoknnvuuuFltllppuuuupxdddbbbbbbbbbbbba",
"ahhhhhhddddhhdddhukuppllwtttlknvuuFptlllppuuukudddbbbbbbbbbbbbba",
"ahhdddhddddhddddhukuuulllltttpkvuFpllllpppuuukudddbbbdbbbbbbbbba",
"ahhddddbddddddddddkuuuppllllllpjFulllpppuuuukkuddbbddbbbbbbbbbda",
"adhdddbdddddddddddduuuppppllllluulllpppuuukuudddbdddbbbbbbbbbdda",
"adhdddbdddbbbbdddddhuuppppppppplpppppuuuupuuxdddbddbbbbbbbbbbbda",
"ahhddddddbbbbbbddddhduyyppppllppppppppuuyxuuddddddbbbbbbbbbbbdda",
"ahhdddhdbbbbbbbbdddxdkxpyywwwwwwwwwwwypyxxkddddddbbbbbbbbbbbddda",
"ahdddddbbbbbbbbbbddhdbhuyyyyyywyyyyypppxdhbdddddbbbbbddbbbbdbbba",
"adddddbbbbbdbbbbddddbbhuyyypppyypppppuhddhbbdddbbbbbbbbbbbdbbbba",
"behddbbbbbbbbbbddbbdbahddduuuppuuuuuudddbhbbdddbbbbbbbbbbdbbbbba",
"behdbbbbbbbbbbddbbbbbahddduuddddudddddbbbdbbddbbbbbbbbbbdbbbbbba",
"behbbbbbdbbbbddbbbbbbahddudddddbbddddbbbddabdbbbbbbbbbbdbbbbbdba",
"bhhdbbbddbbbdddbbbbdbahdddddddbbddddddbdddabdbbbbdbbbbbdbbbbddba",
"behhhhdddddbbdddddbbbahddddhhdddddhhddddbbadhddddddddddhddddbbba",
"caaaaaaaaaaaaaaaaaaaccaaaaaaaaaaaaaaaaaaaacaaaaaaaaaaaaaaaaaaaac"
};