/* XPM */
static char *exit_portal[] = {
/* columns rows colors chars-per-pixel */
"64 64 192 2 ",
"   c #0D1C1E",
".  c #0E1E21",
"X  c #0F2123",
"o  c #122225",
"O  c #14252A",
"+  c #142B2D",
"@  c #19292E",
"#  c #122924",
"$  c #14312D",
"%  c #163A2E",
"&  c #193E2D",
"*  c #19302C",
"=  c #1A2C32",
"-  c #172D32",
";  c #193135",
":  c #153B35",
">  c #1B3B35",
",  c #1F343C",
"<  c #173D3A",
"1  c #1B3A3A",
"2  c #153533",
"3  c #22363D",
"4  c #23393F",
"5  c #1A4433",
"6  c #1C4A36",
"7  c #1A433E",
"8  c #1C4C3A",
"9  c #1D533C",
"0  c #1F583E",
"q  c #214F3A",
"w  c #2A5F37",
"e  c #22553A",
"r  c #235B3B",
"t  c #285D38",
"y  c #265B37",
"u  c #2D6236",
"i  c #29623C",
"p  c #316436",
"a  c #316F3F",
"s  c #35753F",
"d  c #1F3640",
"f  c #1F3940",
"g  c #203640",
"h  c #233B44",
"j  c #263F49",
"k  c #293F45",
"l  c #1A4641",
"z  c #1C4B46",
"x  c #1D4E49",
"c  c #1E5541",
"v  c #1E5A41",
"b  c #1D534B",
"n  c #1F5B53",
"m  c #294047",
"M  c #27414A",
"N  c #2A444D",
"B  c #2A484D",
"V  c #334449",
"C  c #225B43",
"Z  c #21554F",
"A  c #225A46",
"S  c #2C4750",
"D  c #2E4A53",
"F  c #314C56",
"G  c #334F58",
"H  c #225B54",
"J  c #235752",
"K  c #35515A",
"L  c #39555E",
"P  c #3B5153",
"I  c #1F6144",
"U  c #236544",
"Y  c #266944",
"T  c #2A6C42",
"R  c #246C4A",
"E  c #24664B",
"W  c #2E7445",
"Q  c #25724D",
"!  c #2A754B",
"~  c #2C7E4F",
"^  c #327341",
"/  c #337C49",
"(  c #377D44",
")  c #24645B",
"_  c #25685F",
"`  c #226057",
"'  c #247652",
"]  c #267951",
"[  c #2A7C50",
"{  c #3B5760",
"}  c #3D5962",
"|  c #266C62",
" . c #286D64",
".. c #297167",
"X. c #2B746B",
"o. c #2D786E",
"O. c #2F7B71",
"+. c #317E74",
"@. c #425D65",
"#. c #445F68",
"$. c #466167",
"%. c #466169",
"&. c #4A656C",
"*. c #4D686F",
"=. c #4F6A70",
"-. c #526D73",
";. c #567176",
":. c #577278",
">. c #5B7579",
",. c #5E797D",
"<. c #587276",
"1. c #607C7F",
"2. c #2F804F",
"3. c #378047",
"4. c #3B8446",
"5. c #33844E",
"6. c #39864A",
"7. c #37884D",
"8. c #3B8B4C",
"9. c #3E8847",
"0. c #3F904E",
"q. c #2E8151",
"w. c #328550",
"e. c #378A50",
"r. c #398C50",
"t. c #328175",
"y. c #34847A",
"u. c #36887D",
"i. c #3A8A7D",
"p. c #408F4B",
"a. c #428946",
"s. c #44924B",
"d. c #49964A",
"f. c #4D9949",
"g. c #47984C",
"h. c #529D48",
"j. c #58A249",
"k. c #48927D",
"l. c #627E81",
"z. c #378C82",
"x. c #398D84",
"c. c #3A9086",
"v. c #3B948B",
"b. c #3E998E",
"n. c #3E9D92",
"m. c #3FA095",
"M. c #439B8E",
"N. c #449888",
"B. c #429D91",
"V. c #668285",
"C. c #698688",
"Z. c #6E8A8C",
"A. c #698487",
"S. c #708D8F",
"D. c #748F90",
"F. c #779292",
"G. c #7B9897",
"H. c #42A296",
"J. c #49A394",
"K. c #42A599",
"L. c #45A99C",
"P. c #4BAB9C",
"I. c #4AA799",
"U. c #52AC9D",
"Y. c #52B19E",
"T. c #4EADA1",
"R. c #53AFA3",
"E. c #4CB2A1",
"W. c #52B3A3",
"Q. c #5AB2A6",
"!. c #54B9A4",
"~. c #5EB4A9",
"^. c #5BBDA9",
"/. c #58BBA7",
"(. c #62B6AA",
"). c #66B9AD",
"_. c #6ABDAF",
"`. c #68BCA1",
"'. c #69BEB1",
"]. c #5DC4AC",
"[. c #5FC8AE",
"{. c #61C6AC",
"}. c #6DC2AD",
"|. c #60C8AE",
" X c #6BC2B2",
".X c #72C7B3",
"XX c #75CAB4",
"oX c #7ACDB2",
"OX c #7FD1B2",
"+X c #7BD1AE",
"@X c #84D6B3",
"#X c #85D8B4",
/* pixels */
"d.s.~ [ 5.~ f.f.f.8.[ w.p.8./ 7.8.2.[ ] 7.8.[ [ 7.w.f.f.7.f.s.~ 8.j.p.[ 8.5.7.[ ' 7.w.' ~ 7.[ 8.p.7.[ 7.7./ w.8.' [ p.[ ] 7.s.7.",
"[ 8.7.2.s.[ f.~ f.f.f.w.5.f.p.[ f.[ 7.8.q.[ ' 7.h.d.f.h.d.~ 7.6.7.7.~ p.d.8.[ ' 7.w.] ' w.s.r.[ s.d.d.~ 8.8.[ [ ~ d.p.[ ] 5.~ ~ ",
"8.f.8.5.h.r.~ ] [ f.f./ [ [ w.7./ 7.s.p.[ 7.s.s.p.7.5.s.s.[ ] 7.5.5.p.8.5.p.[ 7.s.[ 5.p.8.5.p.[ s.~ ~ ' 8.p.8.8.d.f.7.7.] 8./ w.",
"w.s.f.7.5.s.p.[ / 8.w.] 5.5.[ 7.[ p.s.5.8.7.s.d.~ 7.7.~ [ 8.7.7.~ 7.f.s.8.[ [ 8./ 8.s.p.] ~ f./ p.] 8.8.s.7.5.s.p.w.[ [ 8.f.w.[ ",
"~ 5.7.8.8.7.f.5.s.p.~ w.7.5.p.s.p.w.~ [ d.7.5.7./ s.0.] 5.5.s.8.q.q.8.s.p.[ 5.~ 5.s.8.5.8.7.7.p.8.w.f.7.f.p.[ 5.5.6.[ ~ w.7.[ ] ",
"p.5.[ p.s.[ h.5.7.p.~ ~ 7.p.f.p.h.[ w.8.d.5.5.8.8.g.8.7.g.7.8.q.w.w.q.r.w.[ 5.w.5.f.w.w.f.8.7.d.7.8.s.w.7.p.8.7.p.f.5.p.w./ [ [ ",
"d.8.8.p.7.5.p.] ~ 8.7.~ 7.s.w.[ s.[ d.8.d.7.w.0.e.r.2.u p p e 9 t t 9 8 v ] [ r.' s.8.w.8.p.7.p.] w.s.s.5.8.p.p.p.r.p.8.6.5.w.~ ",
"7.s.s.5.5.8.[ ~ 8.p.p.p.p.7.' [ 7.[ s.[ p.w.] Q v v v = - = - = @ - @ = ; v C v ' 8.p.5.5.7.~ 7./ ] p.s.7.7.5.5.r./ 8.w.[ [ p.7.",
"[ 7.7.5.d.5.s.d.p.[ ' ~ 7.d.5.[ s.7.7.w.r.! U 8 o O = G L L L K G K G K S @ @ @ C U R [ 5.2.2.s.p.[ 7.p./ ' 7.s.p.f.w.[ 7.d.5.[ ",
"~ [ [ 2.s.s.7.d.d./ 5.8.5.5.d.7.p.8.f.f.3.> o 3 G L *.L L L L L { L { { L { #.@.= o z [ w.s.s.7.[ 8.[ 7.s.w.5.s.p.r.[ w.s.d.5.~ ",
"7.5.q.] / 8.~ p.[ p.d.f.8.7.f.] ] ] s./ > h K G { #.K *.>.l.&.1.F.F.F.S.l.G G F G L 3 6 ] w.f.5.[ 7.[ p.f.w.' [ w.p.] [ p.w.5.7.",
"8.d.8.[ 8.8.[ 8.w.s.p.[ w.8.s.7.] [ [ % m } ;.&.#.A.G { { } F S F K K } >.l.F.*.@.} L 4 5 7.s.[ h.h.d.p.w.[ ~ 7.7.s./ [ [ e./ ~ ",
"~ p.h.p.~ p.s.5.7.f.w.7.7.7.p.7.[ ' % N G L @.{ F S B j S D K @.L D S h k D } Z.A.&.{ L m 5 q.[ p./ [ 7.[ 5.p.p.g.d.[ [ [ 7.8.5.",
"8.7.w./ ] 7.7.~ / s.s.5.7.d.s.5.~ > k L -.{ @.%.j h h O O O @ @ @ O o X O h j %.G.Z.=.{ F 1 5 q.[ ' 7.w.7.p.8.5.[ 8.8.[ 7.8.~ 5.",
"7.[ [ 7.7.p.[ 6.[ 7.f.7.[ w.5.! 5 k F D 1.*.L K 3 O @ < 8 b z z z c x Z 1 @ @ S &.C.C.*.L F 4 q 5.5.d.[ 8.8.5.7.[ s.w.7.5.8.8.7.",
"p.[ [ 7.7.d.7.s.7.p.s.5.[ [ ] R X G F ;.1.@.D h - x J _ ....i.J.M.M.z...H < : - h %.;.=.&.@.B # w.w.d.p.7.5.7.7.[ s./ 5.7.s.7.5.",
"d.7.5.5.[ f.7.7.8.f.8.5.5.7./ e 3 L #.1.$.F 3 ; x O.y.o.O...v.I.J.B.N.u.o._ b < ; B K ,.A.@.L , 9 5.d.p.[ 5.7.5.5.5.s.7.8.0.8.7.",
"8.8.6.~ ~ 8.[ [ 8.8.7.7.8.8.^ O { @.C.{ F 4 - x ....y.t.x.z.y.z.t.X.t.v.+.y._ | 7 , D ;.A.*.@.F o 4.d.7.5.7.8.7.7.[ d.p.w./ 8.s.",
"5.7.5.5.[ [ ~ 5.8.[ 8.p.p.p.e = L { A.#.S @ 7 X...y.b.n.L.L.E.E.P.M.c.y.t.M.x... .2 - N #.*.G G + e s.j.s.7.0.s.5.s.s.[ 7.w.w.7.",
"[ ~ p.s.7.7.[ f.s.5.q.w.q.v O F K <.G N h @ x X.t.n.b.L.[.|.].].].].W.n.b...X...| < O m L F { } B o E 8.8.~ ' 5.f.h.f.[ [ s.h.p.",
"7.2.[ 2.7.' ~ s.s.d.7.p.s.v @ } &.@.G S O l ..t.v.v.H.{.[.[.E.T.L.L.L.H.b.z. .y.X.) 2 3 G %.l.%.@.o W 7.s.s.~ ] [ [ p.s.h.h.7.] ",
"s.7.' 2.p.[ 8.7.[ 8.s.7.] c = #.#.j S f O z O.c.v.b.{.+XL.m.m.m.H.E.].!.v.v.c.u.X._ : @ S *.l.K L @ s 8.2.8.8.2.p.[ [ p.8.~ ] ] ",
"s.f.7.2.d.5.5.~ 7.q.8.s.i ; F K F j j + z | t.v.c.H.].K.m.L.m.L.m.H.b.b.v.v.v.v.x.o._ 7 = F { *.G V * W 8.0.s.s.e.p.] p.7.[ ] ~ ",
"7.7.6.s.s.8.8.] [ s.f.0.9 @ G } &.j f o b O.c.v.B././.n.m.m.T.Q.E.m.b.H.U.v.v.v.b.O...l @ S } -.B G O U q.5.8.8.7.[ 7.~ p.~ 7.7.",
"~ 7.p.s.w.7.f.p.7.5.w.7.y @ G } ;.S j o x y.b.b.B.E.H.n.K.K.Q.R.L.L.n.b.I.W.b.v.b.+...l @ S { K F G O T p.f.p.~ p.r.7.] p.s.d.r.",
"p.s.p.5./ p.h.8.5.7.8.w.9 = G K @.j - ; x o.v.v.n.T.v.b.K.T.~.Q.E.m.K.n.B.[.H.v.x.y.X.H 1 g { { K F o T s.p.7.5.5.s.~ p.p.7.s.p.",
"f.p.5./ [ f.w.7.5.p.p.r.t @ K @.D h o l  .+.z.v.B.W.B.b.m.~.'.'.^.T.K.K.B.P.W.b.c.c.O.| l O K &.L G O ^ w.7.p.p.w./ ] s.p./ 5.e.",
"s.8.7.7.7.s.7.s.7.p.[ r.u @ } -.D j o l X.+.z.b.B.I.n.b.T.).'..X X(.T.K.K.v.!.b.b.b.+.| 7 O G &.D K O T w.r.p.8.8.' 7.5.p.s.[ ~ ",
"s.p.7.8.8.7.f.d.5.8.8.7.y = @.%.K S o x o.O.y.n.K.B.v.M.(.'.XXXX.X'.Q.L.K.v.P.b.n.v.+.| 7 @ L { j F O T r.8.[ ~ p.7.d.~ w.p.7.7.",
"p.5.w.p.[ 5.8.h.5.8.s.g.t = K L G M O H c.u.y.v.B.T.n.B.(.oX@XXXoXoX~.P.K.b.P.b.v.B.u. .z @ D S F F O a w.r.w.w.h.s.7.w.~ s.s.6.",
"s.7.8.s./ f.[ j.d.[ 8.r.9 O F *.D M O H ..t.b.N.v.v.b.(.).@X@X@X#XoX'.~.H.b.Y.b.c.`.k.` l @ F S j F O U ] p.p.6.f.] ~ p.s.h.e.] ",
"[ 8.f.s.8.p.[ p.d.h.f.d.w @ G F D M o ` ..y.I.P.v.v.b.(.'.@X@X@X#X#XoXQ.K.m.u.c.v.z.O.| 7 @ G { F m o T [ 7.r.p.p.[ s.h.r.7.p.7.",
"s.7.5.f.8.] ] p.f.h.7.q.r @ { } N M o H ..y.v.v.v.v.B.(.).oX@X@X#X#XoX~.B.b.P.v.M.v.+._ 7 O D #.F S o ^ g.s.w.[ [ w.d.8.8.s.d.8.",
"f.s.6.7.[ / ] p.w.p.s.g.t @ G S D D # H ..y.P.U.c.v.H.(.).@X@X@X#XoX'.(.K.b.R.M.x.x.o.) l O S F D F O U s.8./ 8.d.s.7.[ [ p.7.5.",
"p.7.~ w.s.p.s.h.8.7.5.r.u @ D D D N o H ..y.K.K.c.v.K.T.(._.XX@X#XoX}.Q.m.b.^.b.x.+.|  .Z O F L M D o U [ r.7.5.s.7.[ 8.~ s.2.~ ",
"7.[ ' w.d.w.s.p.p.5.' w.i O S M D h o z _ u.v.L.T.v.n.K.R. XXXXX.X_._.Q.K./.{.b.`.N. .X.J O S G F D O U ] 7.7.] w.[ 7.5.5.2.8.7.",
"[ 5.p.s.s.' w.p.7.' 5.s.t O j S L D o H X.y.v.H.I.v.v.m.L.W. X X'.).(.P.L.[.P.v.U.B.o.| x O S S F D O ^ g.s.8.w.~ p.s.7.[ 5.f.p.",
"~ p.d.s.f.7.5.7.[ ' s.f.t O N G K D O  .X.o.z.v.v.n.v.n.L.L.E.Q.Q.!.T.H./.].v.v.v.x.o._ l + D L D D o ^ s.7.8.s.w.p.f.s.~ 5.8.7.",
"w.p.7.[ d.h.d.7.[ 7.7.r.r @ D S D h o b  ._ t.v.v.I.U.v.n.m.L.L.K.T.E.E.].Y.v.v.v.y. .| l O D %.D N o T ] ' q.8.7.] 5.s.8.[ [ 7.",
"[ p.8.' [ d.p.f.[ s.w.[ 0 @ D M F h o x  . .X.u.v.M.}.H.H.m.m.m.K.L.].].!.v.v.i.v.X. . .l o M { F N o T w.[ ] 7.8.] ' h.f.7.8.d.",
"8.s.7.[ [ 7.7.5.5.7.5.8.p @ K { D M o b u.O._ O.v.v.m.^.[.H.M.H.n.n.K.m.B.n.x.+.u.X.+.o.l O M G F N O U p.7.7.s.p.] ~ s./ s.d.8.",
"h.8.5.d.d.s.s.~ 7.[ 8.0.9 O N K K S o H u.O. .O.c.v.b.n.].].].J.n.n.v.b.B.U.+.x...| | H l O S K D h o T q.8.7.w.s.] f.f.[ d.8.w.",
"f.f.p.p.7.[ p.h.s.5.8.0.9 O j F j M o n ..y.+.....+.c.n.n.b.v.v.v.v.B.Q.U.v.z.c.o.H H H l O D L D h . U ] w.7.7.s.] [ 5.w.d.7.[ ",
"7.8.7.[ 5.f.~ h.7.7.d.r.9 O M K L d X H ..........O.O.c.v.P.W.R.E.Y.P.M.B.c.o...z.X.| | < O h N D h O C [ ] 7.s.w.p.w.] ~ [ 8.7.",
"8.7.5.5.[ w.7.8.7.s.7.A + O h K $.h o H .... .| ......O.o.t.t.t.+.t.O.o.o.X.X... . .| ` : O j N S f o ; E ] e.s.7.[ 5.] p.s.w./ ",
"/ ~ 7.p.' ' p.p.2.5.~ 8 O O h M S O   + $ $ $ + $ $ $ $ $ $ + $ $ + + $ $ $ $ $ $ + $ + X . - F D j O O c Q 5.s.8.[ p.] 7.s.w.[ ",
"] 5.s.f.7.[ p.7.2.q.9 4 ,   O O O   - h 4 h h g h 4 4 4 3 3 3 g 4 4 4 h 4 h h 4 , 3 4 h , + . - - O . d , I q.w.8.] 5.p.5.w.7.w.",
"5.d.s.8.s.[ s.] s.5.: 3 $.P , , 3 k D K K { #.} L @.@.%.%.@.@.K D K L D K } %.%.@.K D K K N , 4 k k h D - 8 [ / 5.[ 7.8.5.~ 8.7.",
"d.d.7.7.f.w.7.7.8.[ % V Z.S.;.*.<.:.=.&.@.=.l.-.-.l.l.l.A.V.>.-.-.<.l.-.<.l.V.l.-.*.=.;.>.:.&.=.;.-.-.%.= 6 ~ 5.7.p.p.[ ] 8.8.7.",
"p.7.w.d.p.7.[ s.w.! % V <.-.;.;.<.-.-.:.@.&.:.-.-.-.-.l.l.l.-.,.A.l.>.>.>.>.l.;.@.=.>.,.>.;.=.-.*.%.&.@.= 5 Y ~ p.p.7.] [ 8.7.7.",
"8.8.p.8.~ / 8.8.7.U * O h h 4 , j G K L j S G F j j j S F F F { { N g g h N %.S M M S N j M N N h N h g O & r U 3.5.[ ~ p.[ 8.s.",
"s.s.7./ s.p.h.d.w.U $ , K F F h K K K K F F G S N L K D F F F @.K j N j F G } m h j S M j D M j D h B h O % C U Q [ p.7.[ [ 7.5.",
"[ ] / 8.p.w.d.~ 8.3.& , D d h , h g g d F m , M F g 3 g 3 d h h j h g 3 h , d g D D h d g d g M D g D h O & ^ d.8.[ p.[ 7.7.3.[ ",
"' 7.p.5.w.d.~ ' ] 9.a U A 9 A < A - - e 7 O X o q A X X o O e 7 O o X + r o X o e > @ 8 c - 1 A ; ; T 7 e T 9.8./ s.p.[ p.8.[ [ ",
"[ 7.f.f.s.p.] 5.] 0.4.U v r Y C R 8 8 W i 6 5 y Y E e 8 8 t E C 8 8 6 e W 8 9 6 U e 7 v U c r 3.A A U 9 T 9.7.5.s.g.[ 8.5.5.p.7.",
"7.p.7.8.h.p.5.7.] ~ 2.! / a.6./ 9.6.6.~ ' / 9.9.p.5.Q 6.R 8.~ ~ 8.W ! 9.7.Q R Q a.~ / / ~ ~ ! s.^ ~ / ( 9.s.7.] w.7.[ [ [ p.7.[ ",
"0.7.] 2.0.2.g.8.] 7.2.] ] 9.j.g.d.d.5.2.2.s.d.8.q.7.s.s.[ 2.s.f.8.w.s.s.[ ] ] s.f.7.5.w.~ 2.s.s.q.s.f.s.e./ ~ 7.7.~ p.8.] s.5.' ",
"d.6.' ] 7.9.f.8.[ s.7.2.0.0.7.6.s.8.] ] 0.8.8.7.[ 8.7.s.] ' s.j.s.7.5.7.r.[ 5.h.7.2.[ ~ 7.7.7.7.8.7.h.h.q.[ 7.s.[ [ f.s.5.7.p.~ ",
"8.2.2.8.8.0.g.2.5.0.6.7.d.s.7.7.2.7.5.[ 9.7.2.2.5.f.8.f.8.] 7.h.s.7.~ [ s.[ w.f.[ 5.~ 2.8.7.] ~ 8.] f.p.7.7.7.5.w.s.f.7.7.p.f.8.",
"2.2.6.0.0.9.7.' 0.6.6.7.2.7.s.7.2.2.d.2.2.7.] ] 7.f.8.d.p.5.~ s.7.~ p.~ [ [ / 5.[ p.7.8.7.~ 7.Q ' 7.h.8.p.s.5.~ p.p.7.' ~ 8.s.8.",
"0.s.7.' 2.f.2.' 8.7.5.8.5.~ 5.] 7.5.8.5.[ ' [ 8.s.7.] 8.] 5.2.7./ w.d.8.] ~ p.w.] 8.s.s.7.7.7.~ [ h.h.d.s.p.5.5.8.' [ [ [ ' 5.7.",
"9.d.9.2.2.d.9.2.7.0.2.2.7.] [ ] ] s.5.5.2.2.8.s.8.7.2.6.~ [ p.s.[ 7.d.p.[ 7.p.p.7.~ 7.7.7.8.5.s.~ s.s.5.7.7.5.5.' ~ p.5.p.w.7.5.",
"2.8.8.2.7.g.6.2.] ] 2.6.0.8.7.7.~ 8.s.~ ' 7.s.6.' 5.f.[ ' 7.s.7.w.2.] 5.~ 5.8.8.2.2.5.7.8.7.p.s.5.~ 7.~ 7.p.7./ [ 7.h.] 8.p.~ [ ",
"0.f.7.2.8.' 2.7.2.' 7.2.6.h.f.8.7.] 8.2.' 5.0.2.' 2.s.s.[ 7.[ ~ 8.7.' 5.d.[ 7.[ 7.8.q.] ] / 6.~ 8.f.[ [ [ d.s.~ ] [ p.] ' p.w.5."
};
