/* XPM */
static char *portal_xpm[] = {
"64 64 32 1",
"a c #2d8aa7",
"b c #349ab2",
"c c #2f7498",
"d c #44a8b4",
"e c #53b3b5",
"f c #4ca4b7",
"g c #37a3b2",
"h c #45a6c0",
"i c #2c7ba8",
"j c #3ba1c0",
"k c #313176",
"l c #2f2c6c",
"m c #2f6890",
"n c #473198",
"o c #582ea2",
"p c #3a3188",
"q c #2a265c",
"r c #295c8d",
"s c #672aa3",
"t c #472b99",
"u c #461bad",
"v c #3b2c8e",
"w c #5a1bed",
"x c #6a2ff8",
"y c #7025fd",
"z c #9248fe",
"A c #651bfd",
"B c #9735fe",
"C c #8a2bfe",
"D c #422a70",
"E c #c248ff",
"F c #334278",
"aaabbbbaaaaaaaaaabbbaaaabbbbaaaaaaaaaaabbbaaaabbbaaaaaaaaaabbbac",
"addefffddddddeedeeeedbddeeeeddddggdgggeeedbbddddedddggggggdeeeda",
"adfeeeeeedggggggddeegbefddddedggggggggddgdbgedddddddgggggggdddga",
"beegggeedgggggggggggdbedgggddgggggggggggggbddggggddgggggggggggga",
"bedggeedgggggggddgggdbfgggddgggggggggggggdbddggdddggggggggggggga",
"beegeedgggggggdgggbggbeggddgggggggggggbggdbddgddggggggggggggbgga",
"beeeedggggggggdggggddbegddgggggggggggggggdbddddggggggggggggbggga",
"bdeedggggggggggggggddadddggggggggddggggggdadddggggggggggggggggga",
"adedgggggggggggggggddadggggggbggddgggggggdaddgggggggggggggggggga",
"addggggggggggggggggdbadgggggbbgdddggggggbdaddgggggggdgggggggggga",
"adggggggggggggggggbgbadgggbbbgdddggggggbbdaddgggbggdggggggggggga",
"adggggggggggggggggbgbadggbbbggddgbggggbbbgaddggbbgggggggggggggga",
"adggggggggggbgggbbgdfadgbbbggdgbbbbggbbbggafdgbbggggggbgggggggga",
"adgggggggggggggbgggdbadbbbbgggbbbbggbbbbddabgbbgggggggggggggggga",
"bdggggggggggggbgggdgbahbbgdggbbbbddbbbbdddadgbgdggggggggggggggga",
"bdgggggggggggggggdgbbahbbhhbaaiiiaaabgdfbhbdggddggggggggggggggga",
"bddgggggggggggggdgbbbahjfaacklllllllmaibbhbddgggbgggggggggggggga",
"bddgggbggggggggdgbbgbafailllnnnnnnnnlllmadbddggbbggggggggdggggga",
"bddgggggggggggggbbbdfaillnnnoooooooonpnlqfaddgbbbgggggggggggggga",
"bddggggdgggggdgbbbbhbrknnoooooooooooonnnplmfdgbggggggggdgggggdga",
"addddgdddddddggddddfclnnnooonnnnnnnnssonnplfdddddddddddgggdddgga",
"caaaaaaaaaaaaaaaaaamkpnootttuuuuuuuuttvosnpkmaaaaaaaaaaaaaaaaaac",
"agddeeeddddgggddghcknoontuuuwwwwwwwwuuutonpplchddggggggggggddgga",
"bdedddddgggggggggjcloontuxwwyyxxxxxxxwwutsnplmjgggggggggggggggga",
"bedgggdgggggbbbbjcknsntuxwwyzzzzzzzxxxywutonpkcgggggggbgggggggga",
"bedggddggggbbgggjmlosvuxwyzzzzyyyyyzzxxywusnplmjgggggbbgggggggga",
"bedgddggggggggggcktonvuAyzzzyyAAAAAyyzxyyutsnvkcgbggbbggggbgggga",
"bedddggggggggggbmlnsvuwyxzzyAAxxxxyAAyBxywusnplmbbbbgggggbbgggga",
"adddggggggggggbbmlnsvuyxBzyAyyBzzzBBAAyxxwutnplmjbbbggggbbggggga",
"addggggggggggbbbmlntouyxByAyBzzCCyzzBAAxxwutnplkcbbbgggbbgggggda",
"addggggggggggbbbmDovuxyzBAACBzBAAABEByAyyAutnppqmgbbggbbggggggga",
"addggggggggggbbgmDotuwyzBAyCBCAAAAACBCAAyyutnppqmgbggbbgggggggga",
"addggggggggbbbbgmDotuwyzBAyCBAAAyCAABCAAyAutnppqmgggbbggggggggga",
"bdgggggggggbbbbbmDotuwyzBAyCBAAAyByABCAAyAutnppqmgbbbgggggggggga",
"bdggggggggbbbbbbmlntuxyzBAyCBCAACBAABCAAyAutnplqmgbbggggggggggga",
"bdggggggggbbbbbbmlnntuyBBAAyCBCCBCAAByAyyAuonllqmbbgggggggggggga",
"bdggggggggggbbbbaFtttuwyCyAAyCBBCAACCyAyywutnplkcbbgggggggggggga",
"bdggggggggggbbbbjclttouyyCyAAAAAAAyCyAAyyustppqmjbggbgggggggggga",
"bdgggggggggbbbbgjmlttouwAyByyyyyyyCyAAyyyusnpkqmbbbbbbbgggggbgga",
"bddgggggggbbbggbbckvttouwAyCBBBBBCyAAAyyustnklkcgbbbbbbgggbbgdga",
"bddggggdgggbggbbbjcltttouwwAyxxxAAAAAyyussnpkqmjgbbbbgggggggddga",
"adddddddddddggbgdhckvtttoouwwwwwwwwyAuussnplllmhddddddddddddggba",
"caaaaaaaaaaaaaaaaaamlvttsttuuuuuuuuuusstnpvllraaaaaaaaaaaaaaaaac",
"agdeeeeddddddddddbiirlppnssssssssssssnnnplllribddddgggggggggggga",
"adeedddddggggggdfairklpppnnnnnnnnnnnnppklllqriaabgggggggggggggga",
"beegggddggggggbaaamkppkkkkkkkkkkkkkkkllllllkkmiiabggggggggggggga",
"bedggddgggggggbaaamlpnnnnpppppppppppppppnpkklriaabgggggggggbbgga",
"bedgddgggggggdbaaamlkkppnnnnnnnnnnnnnnnpkkkllraaibgggggggggbbgga",
"addddggggggggggaiiirllkkpnpppppppppppppkklllciaiagggggggggbbggga",
"adddgggggggggggbaiaimrllllllllllllllllllllcriaiabggggggggbbgggda",
"addgggggggggggggbbaaairrrrmmrrrrrrrrrrrrrmiiiabbggggggggggggggga",
"adggggggggggggggggbbaiaaaaaaaaaaaaaaaaaiiaiabbggggggggggggggggga",
"addgggggggggggggggbgbababbaaaabbbabbbaaaabagggggggggggggggggggga",
"addgggggggggggggggggbbggggggggggggdggggggdbgggggggggggggggggggga",
"addgggggggggggggggggbagggggggggggddggggggdagggggggggggggggggggga",
"adgggggggggggggggggdgaggggggggggddgggggggdbgggggggggggggggggggda",
"adgggggggggggggggggdgbdgggggbggggggggggggdbgggggggggggggggggggda",
"bdggggggggggggggggggbadgggggbgggggggggggbdbgggggggggggggggggggda",
"bddggggggggggggggggggbdgggbbgggggggggggbbdbgggggbgggggggggggbgda",
"bddgggggggggggggggbgbbdgggbgggggggggggbbgdbddgggbgggggggggbbggda",
"bddggggggggggggggbbgbbdggbgggggggggggbbggdadgggggggggggggbbbggga",
"bedgggggggggggggggggbbdgggggggggggggggggdgagggggggggggggggggggga",
"beeddddddddggdddddggbbdgdddddddddddggddgggbdddgggggggggdddddggga",
"cabaaaaaaaaaaaaaaaaaacaaaaaaaaaaaaaaaaaaaacabaaaaaaaaaaaaaaaaaac"
};