/* XPM */
static char *grass[] = {
/* columns rows colors chars-per-pixel */
"64 64 20 1 ",
"  c #324717",
". c #364C17",
"X c #364C18",
"o c #384F18",
"O c #3A5017",
"+ c #3C5419",
"@ c #3F5819",
"# c #40571B",
"$ c #435C1A",
"% c #46611B",
"& c #4A651B",
"* c #4E691C",
"= c #516D1D",
"- c #55721D",
"; c #59751E",
": c #5C791F",
"> c #617F1F",
", c #5B7620",
"< c #5E7A20",
"1 c #607D20",
/* pixels */
"*&O%<,+&%@%%=+*$@%$$=XX$&$&$*%@-**$&*%$@=%$&$&#&*X$==%&=%##==+$$",
";=%&%&%@==%,*@,X+%@@&$%*=,,%%@=-%%.%=.--#***$$O$#o$&==+===#%&#&$",
"&&,&&$&$+$$=@&%$+,,&&%%,&+**+@&@=-@*$&*oO*&==@OX#*&o$=#*==*&&==+",
"$X,$%*=$%==&*$$-%=%**,*=%$O@%,%*=+%**$o$$*&==,*==&**&=O&#&&%*=&&",
"$+*&,=*$=$@#==+,*&%==+%++&,@$,**$$=&$&=$$&#==,*$$$1*&*#=*=&$&&&=",
"=*=*#%,=$X*=+,O*=%&+,&=+OO+&%-*@X*===&&*===$#,$*$,%-%#-=&$&*&$$=",
"&$&%+%%,*@%*,*@*%,*%%*,=%$%=%%O%$$#=&$$#$=+$+%%&=$o=-%&#=**#&&$&",
",*+&*$$#*#%@@$,&=**,@@%=%%%@%%&*&&=&#$=$#+X*$$&$&X$$=%+==$$$o+==",
"$=*=#=*O&&,$*$$&=++&*%+%&&+**==@#*&$=$*,$&*=*$%$$$&$=$$%#OO=&&&O",
"$&====&*#$==$,&#=*$=&&%%,#&=,%%=O*O$%**$,$%,#$&%=,&$&$$%=$=$=$$*",
"$$$,=o==$=&*$O&$**%&X&&%*,,@+<%%=#==%$%%*%$-%*<$+$&=&$$%===O$*&=",
"$$$,$#&$$=&&&=&#%%o%@+,***+&#&,%=$,&O@%*,*@&@+%,&&+$=%*&;$#&$$*$",
"&$**$&=o$$&$#;$$,%*,*@+,&o&&-*%,*=&O$=@O+&%$&=$%==$+$%%&%=#,=&=+",
"&$+=#$,,*$$$&%O=*+%$*%@%@+$&%@@**$,=*&&,%@%+$=,@*$*$&=&**$,%*=&%",
"&,#*X&$O=&==-&$*%%$oX%%$%**%@%%*$$,$&*,&*,,=O*&*#$&$@O%+@%**$X=*",
"&#=*$;&&&&@$$#$*=*%*+%@%+@****%@&&*$,,o%%@$*&&@,*#*+%+%,%,***#&-",
"%$$$*=$$$&,%@X%%*&,%=$+$%*&;*+$,*X*&,%O@&%&@$%&%;$&$$=&&;$$*,$=$",
"&*-==&#$*@*,@$&%*<%O====:$%O$&@%,%%*%%$+&-%&&**;@&==*&=$**&$=*,#",
"=o$#@&#O-%%%,&*X*%*%+,&O:$%*-%%@&<**O@=,%=*%*$&$o%*<$o$$=,$@&**$",
"&$$*@@*=-%=&&==%%@&%%&%+*%*&o@*%+=@%=*&@OO*$$&&&$$%&&$O;=&#$%$==",
"O$*#&*=&&$%-@%*,*%@=*@=&%&%X@&-=O*=,&@+O@$**$%$*;&=@-O&=$+O*,&&+",
"=$;#*;@$*--%%@@*%=*%*%o=%+%$-==$+**#$O=*;*O=%**&*;*O=$&@%*=*$=*$",
"=#=&=**=%+@***%%@%%,,@+=-@%>=o*-$*#==O=;$@$@%<*o@%$$*%$$*=&$$X&&",
"*=$$&$*O%***++@,*&@,@,#%=%@-$&==,#%$;,$-+&&==o%@&=&=*&$*#X%*$$$*",
"$==&*&*=*%%%*%@@<*&%@*%$&$**$;%X+%%@+***$&*&@*-%+*;$-$*&oO*$=-%$",
"#O&**$$*<$$%=,$%@-*o@***&+:*&@$$@+o,*@+$**&@%$&o$@$*&o%&*%=*-+%$",
"&$&=,=$$,@%-**-@O@=$%***-$*&=*%-,,+**%$&:@%&-++o**%=$$=*&$#=*O%;",
"&&$+$&*@*@*&%&%&*@&$$%%@.%@%=%&*X@*%@$-:%%&=%%%*%$$&%&O$@$&=&%$@",
"$$$==#$$***$=*+**@O%**&*$*&%%&%=&%@*&@*@&*@%&%-$X$&*%@@*;%@&&<**",
"&&$,#*****%,@*%:%*-;%%$***@@O;%-&;*%*%%%%*-@*;&O%%*=$-=$@-$+=%&&",
"=$<*O=%=@%@&*@%*@-$&$%&& *%&O%-=%@&=@O--*@;@*%*@$,$*&-$$$O=&=$$=",
"&,*$&@=,%$$@***@*$@&**$$-&**&o&&@%O%%%%%*@$*%-;@%%<*%@$%,%@&&*$$",
"%%=**;=$%&=-$*=&-*&%.-:O*@:%*-%***%%%O+%%$$%$=**$&*&O%**-O@$%*-@",
"=-&*-@@$@%&&-@%@%*--*.-%@-@%@@@-%;@@%%%O&&=$%@O&@-%%==*%*-=*%%*-",
"%*&&&$*=&%:+%*$@@@-**%@*%*%-@@&%@*+.%;%&&@$%O%@@%&$*$$&*@$:%%-@%",
"*.&*%%@%-$=@@&=*$@*%-%%@&%O&*%**+%@+@%*%-@$=%&=--&&@O*&@O@@-*=%@",
"*&%$*%@@@&&&@*&-&*%.:=%@%&@@&%@@=%*%@%@*=*=$@$-&&%&&&$*@@=%$=@$;",
"%%@$=*%%*@$$&&@%*@%@@-%@:*@*@*%@%&=O%&%&&%O@$*O&&&@%*-O=-@*%*$$%",
"@*%*=-$@*%$$&&$%%-=@&&%=@%@&*&*=@%*@;%OO%$O=*$$&$%&=%***@@@=--$%",
"@@:*%&%:&%-&@$*@&=.%@@&&@@:=&%=&%%&-@%-&&-@.:&=O$-=%@@=O%&@$%*-=",
"%% -*%*=%%@&@**=%@%%-@%%%.@:%&@@%&*&%=%%**-*@*-O-$@@%$*$&&&@=&@*",
"*%+%-@%&-**@*&@%&*-%-@@%-&&@=%*%-%$%*=@%O@$*$@*%%%%-=@***:*:*&O@",
"$%*%%@%=@%>%:%@*:&&%*$*:%@&%*%*%@-+%*%*@&&$%=$&$%*@O%=$-==&@O%&O",
"%:**%&*%$O&**@-*@@%*%*%OO**%@%%&$O&*%O*$$;@*=$@*$--*@&=*-*$$%=;%",
"-%@=%*%&-*%**%*%@*=%%*%**%O*@%&%$O$%O@%=%*&&O&*& **$*=$$*@O$$@$*",
"%$&:-%*&@@*%*%%@**>%@@%=*%%-%%:@%-$$*=$&&$&%OO%:%@&@$&:O%$*=%%%&",
"%&&$%=%=%*@%&-:%=$:@*%@%:=@%&=%@&;%;*%@O%$@-%$@$:%%=%O&*%%-$$%*$",
"%*-%@@=&@=%=:$O**%&@--*@@--@*&@O=$=++*@%%OO&:*$%%-=%&*$&%%O%&@O@",
"%&**&&**%@*-@%%*%%*-@*%%%.*%**&-&@$@%$*:%%*%:@%:%%$%$$*&--@%=@&-",
"==$@*&-:*%*X%;&%***%@$%*&$@%*=%%*$&&*&%*>@%=%%%*%&%==$%%@&=@*%@$",
"@;&*&%@@-*X@=%*+-%%%*%-%%--$@@*-%$*$.*>O@*@%@%&%$%@@-*&$@@@%*-%%",
"%%&-@%-@+*@-&+%**@:%--$%%@%:%%@=*&**.-=*%$%%@@%@-=**O$*$*$&@%-&*",
"=%@%&:*@%@*&$%*-%%%*-$@*$*@@=%%@%-%-&*O@*&%&*%%&$&:*@&%%&=&%=&%%",
"@*-@*@&&&%%%*%***@@%%%%=*-O$*%==@%@%*%&$-%@%-*%*%@:&**==%%-%-@@$",
"@X&*&&&=%%*%&&*%**%%@@%@$**&@@%*%-**&$=*$$%-@%-:%@=%=;-@$-=%*%%%",
"%%@&*%@%%@+%**$%@**@--%*$%@***$*@.@=&%&-@@-&.%*$&%&%-*@@%$;-$&&-",
"-*%*%*=X&&%%-@*&@&@&&%%%%&@=*@*%*%@@$$@$-%-%%%$$$&-*%O%%%@@&&%%%",
"**%*&@*&%&&-%&%=*$%%.&@@$--&@O%*@**.*=>%$**$$$==$&*&-=&=%**@$&&@",
"%&@-*@+%&**&@-@&@%&%&-*%%-%%%=*=%@-$@++=%&@%-=@*:@&**%%*:&&$%&**",
"-%*%%-%+*--&%@:%@=@*-@O%%*%@=%+**@%*=O.$%&%+@=*.&*&&%-@=*&*&$%%&",
"%-%%&%&&&%+$%+&%%%@*@$*&&@%%$@@%@*%%%$-%&=**$+**@*%$%*%-%*@%-$%%",
"*%%-@%&&$@-=&&%&*%%@@%@%-*$%&%&$%*+%**=@@@@=-$:*&$%**%%&%&%.$&-O",
"-@%*&;%%$=%%&*@@$$=%*%%%@%=+*%@$&$$%@&%%*%*@-%-**%+&$**%&=-*%%=%",
"-*%@*%%%@%+&&%&@%=*O**+*$O%%@*&$%***%-%@%=&$**@@**@$$*;@=&%****="
};
