/* XPM */
static char *glass_floor_xpm[] = {
"64 64 11 1",
"a c #198ab0",
"b c #269ab7",
"c c #2ba9c2",
"d c #2aa1bd",
"e c #4bc2cb",
"f c #64cbd0",
"g c #73d1d3",
"h c #33b8c6",
"i c #44bcc8",
"j c #3ec0c9",
"k c #1e93b9",
"abbcccdddddddddddccccabbcccccdddddddddddddabbddddbdddbbbbddcccca",
"beeffeeeeeeeeefeefffeceegggfeeeeeeeeeeeeeedhieeeeeeeeeeeeeeffeeb",
"begeeeeeehhhhhhhheeeehegeeehehhhhhhhhheihedifehheeehhhhhhheeeheb",
"dfeejjeehhhhhhhhhhhhecfehhhhhhhhhhhhhhhhhedeehhheehhhhhhhieihhib",
"cgejeeehhhhhhhhihhhhedgihhhhhhhhhhhhhhhhhedeehheehhhhhhhieehhheb",
"cgejeehhhhhhhhhhhhhhidghhhhhhhhhhhhhhhhhhedfeheehhhhhhhheehhhhib",
"cgeeehhhhhhhhhhhhhhhidfhhhhhhhhhhhhhhhhhhedfeeehhhhhhhhhhhhhhhib",
"cfeehhhhhhhhhhhhhhheedeehhhhhhhhhhhhhhhhhedeeehhhhhhhhhhhhhhhheb",
"cfehhhhhhhhhhhhhhhheedehhhhhhhhhhhhhhhhhhedeehhhhhhhhhhhhhhhhheb",
"cfehhhhhhhhhhhhhhhhhidehhhhhhhhhhhhhhhhhhideehhhhhhhehhhhhhhhheb",
"cfehhhhhhhhhhhhhhhhhhbehhhhhhhhhhhhhhhhhhhdeehhhhhheehhhhhhhhhib",
"cfehhhhhhhhhhhhhhhhhhbehhhhhhhihhhhhhhhhhideehhhhhhhhhhhhhhhhhib",
"cehhhhhhhhhhhhhhhhhhibihhhhhhhhhhhhhhhhhhideehhhhhhhhhhhhhhhhheb",
"cehhhhhhhhhhhhhhhhheibihhhhhhhhhhhhhhhhheidihhhhhhhhhhhhhhhhheeb",
"cehhhhhhhhhhhhhhhhhhhbihhhhhhhhhhhhhhhhehhdihhhihhhhhhhhhhhheeeb",
"cehhhhhhhhhhhhhhhhhhibihhhhhhhhhhhhhhhhhhidehheehhhhhhhhhhhehheb",
"cehhhhhhhhhhhhhhehhhibihhhhhhhhhhhhhhhhhhideeiehhhhhhhhhhheihheb",
"ceehhhhhhhhhhhhihhhhibihhhhhhhhhhhhhhhhhhideeihhhhhhhhhhhehhhheb",
"cfihhhhhhhhhhhehhhhhibehhhhhhhhhhhhhhhhhhideehhhhhhhhhhhehhhhheb",
"cfhhhhhhhhhhhehhhhhiibehhhhhhhhhhhhhhhhhhhbeehhhhhhhhhhejhhhhheb",
"cfehiieiiihhieiiihieibeeeeeieeeeeeeeeehhhhbeeeeeeeeeiieeiiiiiiib",
"bddddbbbbbbbbbbbbbbbbadbdbbbbbbbbbbbbbbbbbabddddbbbbbbbbbbbbbbba",
"chhffffiiihhhiiiiiieibhhieeeffiiiiiiieeeeibcheeeihhhhhhhhhhiiiib",
"cegeeeeeejhhhhhhheheideeeeeeeeehhhhhjeeeeedheeeehhhhhhhhhhhhhhec",
"hfeejhejhhhhhhhhhhhhhdfehhheehhhhhhhhhhhhedeehhhehhhhhhhhhhhhhid",
"hgeeeeehhhhhhhhhhhhhhdfhhheejhhhhhhhhhhhhedfehheehhhhhhhhhhhhhid",
"hgeeeehhhhhhhhhhhhhhhdfhheeehhhhhhhhhhhhhedfeheehhhhhhhhhhhhhhid",
"hgeeehhhhhhhhhhhhhhhidehhehhhhhhhhhhhhhhhedeheehhhhhhhhhhhhhhhed",
"hfeehhhhhhhhhhhhhhhhideeehhhhhhhhhhhhhhhhedihehhhhhhhhhhhhhhhhed",
"heehhhhhhhhhhhhhhhhhideehhhhhhhhhhhhhhhhhedihhhhhhhhhhhhhhhhhhed",
"heehhhhhhhhhhhhhhhhhibehhhhhhhhhhhhhhhhhhebihhhhhhhhhhhhhhhhhhid",
"heeihhhhhhhhhhhhhhhhhbehhhhhhhhhhhhhhhhhhibihhhhhhhhhhhhhhhhhhid",
"heehhhhhhhhhhhhhhhhhhbehhhhhhhhhhhhhhhhhhibhhhhhhhhhhhhhhhhhhhid",
"hfihhhhhhhhhhhhhhhhhibehhhhhhhhhhhhhhhhhhibhhhhhhhhhhhhhhhhhhhed",
"hehhhhhhhhhhhhhhhhheebehhhhhhhhhhhhhhhhhhibhhhhhhhhhhhhhhhhhhhed",
"hehhhhehhhhhhhhhhhheebehhhhhhhhhhhhhhhhhhibihhhhhhhhhhhhhhhhhhed",
"hehhihhhhhhhhhhhhjhhebehhhhhhhhhhhhhhhhhhibhhhhhhhhhhhhhhhhhhhed",
"ceeihhhhhhhhhhhhehhhebehhhhhhhhhhhhhhhhhhibhhhhhhhhhhhhhhhhhhhed",
"hfehhhhhhhhhhhhehhhhibfhhhhhhhhhhhhhhhhhhhbihhhchhhhhhhhhhhhhhid",
"cfehhhhhhhhhhhhhhhhhhbfhhhhhhhhhhhhhhhhhhhbihhhhhhhhhhhhhhhhhhid",
"hfhhhhhhhhhhhhhhhhhehbfhhhhhhhhhhhhhhhhhhhbihhhhhhhhhhhhhhhhiiid",
"cfeiiieihhhhhiiihiiihbeeeeeihhhiiiiiiihhhhbiihhhhihhhhhhiiiiihhb",
"kdddddbbbbbbbbbbbbbbbabbbbbbbbbbbbbbbbbbbbabdbbbbbbbbbbbbbbbbbba",
"chifffffeeeeeeeeieeeidhieffeiiiiiiiiiiiiiibchiiiiiiiiiiiiiiiiiib",
"cegeeeeeeeeeehheeeeeedefeeeeejhhhhhhhhhhhidheihhhhehhhhhhhhhhhed",
"cfeejheehhhhhhhhiihhideehhhhhhhhhhhhhhhhhhdhhhhheehhhhhhhhhhhhed",
"cgeeeeehhhhhhhhiihhhidfhhhehhhhhhhhhhhhhhhdihhhiehhhhhhhhhhhhhed",
"cgejeehhhhhhhhehhhhhidfhhehhhhhhhhhhhhhhhhdihhiehhhhhhhhhhhchhid",
"ceeeehhhhhhhhhhhhhhhidehehhhhhhhhhhhhhhhhidiheehhhhhhhhhhhcchhid",
"ceeehhhhhhhhhhhhhhhhibehhhhhhhhhhhhhhhhhhidihhhhhhhhhhhhhhhhhhed",
"ceehhhhhhhhhhhhhhhhhebehhhhhhhhhhhhhhhhhhedihhhhhhhhhhhhhhhhhhed",
"ceehhhhhhhjhhhhhhhhhebehhhhhhhhhhhhhhhhhhedihhhhhhhhhhhhhhhhhhed",
"ceehhhhhhhhhhhhhhhhhibehhhhhhhhhhhhhhhhhhebihhhhhhhhhhhhhhhhhhid",
"ceehhhhhhhhhhhhhhhhhibehhhhhhhhhhhhhhhhhhebihhhhhhhhhhhhhhhhhhid",
"ceehhhhhhhhhhhhhhhhhibihhhhhhhhhhhhhhhhhhibihhhhhhhhhhhhhhhhhhid",
"cehhhhhhhhhhhhhhhhheibihhhhhhhhhhhhhhhhhhibihhhhhhhhhhhhhhhhhhid",
"cehhhhhhhhhhhhhhhhhhibihhhhhhhhhhhhhhhhhhebihhhhhhhhhhhhhhhhhhid",
"cehieehhhhhhhhhhhhhhhbihhhhhhhhhhhhhhhhhhebihhhhhhhhhhhhhhhhhhed",
"ceeeehhhhhhhhhhhhhhhibihhhhchhhhhhhhhhhhhebihhhhhhhhhhhhhhhhhhed",
"ceeehhhhhhhhhhhhhhhhibihhhchhhhhhhhhhhhhhibihhhhhhhhhhhhhhhhhhid",
"ceehhhhhhhhhhhhhhhhhhbehhchhhhhhhhhhhhhhhibihhhhhhhhhhhhhhhhhhhd",
"ceehhhhhhhhhhihhhhhhhbehhhhhhhhhhhhhhhhhhibihhhhhhhhhhhhhhhhhhhd",
"ceeeeeiiiihhiehhhhhhhbehhhihhhhhhhiiiihhihbieeeiiiiihhheeeeiiihd",
"bcddddbbbbbbbbbbbbbbbadddbbbbdbbbdddddddbbaddddddddddddddddddddb"
};