/* XPM */
static char *player_blob[] = {
/* columns rows colors chars-per-pixel */
"64 64 202 2 ",
"   c #02050E",
".  c #070A0F",
"X  c #0C0E0D",
"o  c #160909",
"O  c #0F100F",
"+  c #18130C",
"@  c #0E1010",
"#  c #260B09",
"$  c #2C1F0E",
"%  c #391909",
"&  c #2B250F",
"*  c #3E2F0B",
"=  c #3F330C",
"-  c #3D3C0E",
";  c #3C3D10",
":  c #1E2120",
">  c #312E32",
",  c #242525",
"<  c #470500",
"1  c #4C0D00",
"2  c #480800",
"3  c #4D1202",
"4  c #4B1C05",
"5  c #471604",
"6  c #521402",
"7  c #551B04",
"8  c #5B1A02",
"9  c #5B1701",
"0  c #631D02",
"q  c #472407",
"w  c #4C2207",
"e  c #442509",
"r  c #4A2608",
"t  c #452C0A",
"y  c #4A2B0A",
"u  c #5D2404",
"i  c #512709",
"p  c #42340C",
"a  c #4A310D",
"s  c #42390E",
"d  c #49380F",
"f  c #56350A",
"g  c #463C10",
"h  c #642304",
"j  c #6E2403",
"k  c #652B04",
"l  c #6B2B04",
"z  c #742503",
"x  c #792703",
"c  c #7C2803",
"v  c #752905",
"b  c #6C3305",
"n  c #7F3006",
"m  c #423332",
"M  c #3F440F",
"N  c #254E11",
"B  c #3D4311",
"V  c #394C13",
"C  c #354C13",
"Z  c #275113",
"A  c #2B5615",
"S  c #2E5A16",
"D  c #2E5C19",
"F  c #275817",
"G  c #335416",
"H  c #3A5216",
"J  c #315D17",
"K  c #325E19",
"L  c #3B5D1A",
"P  c #385517",
"I  c #2E611A",
"U  c #336117",
"Y  c #3A6417",
"T  c #35631A",
"R  c #3A651C",
"E  c #36681D",
"W  c #3C6A1D",
"Q  c #3C6621",
"!  c #3D6B21",
"~  c #356820",
"^  c #43430E",
"/  c #434411",
"(  c #434A13",
")  c #4F4010",
"_  c #445419",
"`  c #425C1A",
"'  c #7A4106",
"]  c #6E5710",
"[  c #416C1E",
"{  c #42701F",
"}  c #426E22",
"|  c #436E29",
" . c #437123",
".. c #45732A",
"X. c #4A7328",
"o. c #5E5454",
"O. c #4D4344",
"+. c #812C04",
"@. c #843206",
"#. c #8B3506",
"$. c #8C3C07",
"%. c #913907",
"&. c #9E3A05",
"*. c #824606",
"=. c #844B06",
"-. c #854F0C",
";. c #9E4108",
":. c #9E4E08",
">. c #994B07",
",. c #8E550B",
"<. c #83590C",
"1. c #9A5908",
"2. c #A34509",
"3. c #AB4B09",
"4. c #A74709",
"5. c #A55408",
"6. c #A95709",
"7. c #AB5909",
"8. c #A65007",
"9. c #B25D09",
"0. c #B15709",
"q. c #9C6509",
"w. c #896B10",
"e. c #866810",
"r. c #9A7710",
"t. c #A66D0A",
"y. c #B9630A",
"u. c #AD740A",
"i. c #BB7D0B",
"p. c #A17C10",
"a. c #CC5207",
"s. c #C8570A",
"d. c #D25608",
"f. c #D45A09",
"g. c #C34D06",
"h. c #C36A0B",
"j. c #C96F0B",
"k. c #DC660D",
"l. c #DB650E",
"z. c #C6790C",
"x. c #E0670E",
"c. c #E26A0E",
"v. c #E86C0E",
"b. c #E5730D",
"n. c #EB760E",
"m. c #ED7C0E",
"M. c #E37E0D",
"N. c #F07B0E",
"B. c #BD840C",
"V. c #C58B0C",
"C. c #C98F0D",
"Z. c #CB910D",
"A. c #D69B0C",
"S. c #D59B0D",
"D. c #C99910",
"F. c #EC830D",
"G. c #EF8B0D",
"H. c #F18D0D",
"J. c #F88F0F",
"K. c #F0840E",
"L. c #EF940E",
"P. c #F1930E",
"I. c #F19C0E",
"U. c #DDA40E",
"Y. c #E4A90F",
"T. c #E9AE0F",
"R. c #E1A60E",
"E. c #F4A50F",
"W. c #F3AC0F",
"Q. c #FAA30E",
"!. c #ECB00F",
"~. c #F4B50F",
"^. c #F8BA0F",
"/. c #E3AA10",
"(. c #F5AD10",
"). c #EEB310",
"_. c #F4B610",
"`. c #F5B910",
"'. c #FABC10",
"]. c #F8B310",
"[. c #FFC10E",
"{. c #FCC411",
"}. c #FACB16",
"|. c #F9C81B",
" X c #FDD316",
".X c #FCD519",
"XX c #FDD81A",
"oX c #FAC922",
"OX c #F9D12D",
"+X c #FFD225",
"@X c #FBDA36",
"#X c #FDE12E",
"$X c #FEE63E",
"%X c #FDE235",
"&X c #FADB40",
"*X c #FDED4D",
"=X c #FDE647",
"-X c #FEF055",
";X c #FEF55E",
":X c #FEF865",
">X c #FEF766",
",X c #A58F86",
/* pixels */
"| E T D T W U D A T E U T D E | Q A D T T ! ..E { ! E ! ! E I E E ! ....W W ! E E E Q  . .! | U T E ! X.X. .E I U W ..E [ ! } X.",
"R K S A S D K K T T U W T T D A A A E W E .... . .T E W W W W  .! E W W E E E E I E U I E ~ T R Q ! W E ! ! E E U I I I W U K E ",
"J U A K U E U S D U T R ~ Q K A A D T K E E W { ! U W { ! I E ..{ { Y Y T U I E W ! E S D K R R | | E U W W E ! W E I I E A D D ",
"T U A T R D S U U U [ U K Q D U T E Q E T E Y W E S Y W E I E ! ! W E ! T I I Y [  .[ E E E W E E Q ~ T ! W ! ! E ! E U E D D U ",
"J U U J U U U T R D R L D K K | | R R R W ! I U S F U T U T W W Q E U ~ I I E Y T !  .R J E E Q K R Q  .! E ! ! E R W E W R U E ",
"S T U A J Y Y Y S A K R D K K Q Q R K R W ~ Q D I A U R E W W I T I T E T ~ E U A U W T S I D Q R Q !  .! ! W W U U Y Y E R U D ",
"R L T A S S J U A J K Y D T Q K K D T ~ T U Q Q R D T W ! ! E U I D T T I ..! E D D K E E T U E ! ..Q E W ! ! E U D I S I Y U D ",
"} R T K A A S J R K K R K Q R K K K T D D U G } W E E W ! ! R W W I D D T ! }  .R D D E } W Q Q ! ! E T E E W W E A S U I R R T ",
"J S J T K K T R J A W Y R K S K D K T K Q Q R ~ T W E E ~ ! ! } ! T T I D D E } ! R T E K K Q Q ! Q W ! W ! ! ! W U E U A U W W ",
"A S T J D K R } R J T T U J T T D K T K Q ! R K A R R Q T T Q K T Q } ! T D ~ } Q R [ Q L Q T Q  .! ~ R E T W W E W  .D U I W  .",
"U U S R K A K R R J U K K K T K K K K Q K D A A D E W T D T K R W T Q ~ ~ D K R R W W Q R } R ! W W ~ E W E E Q K T  .E U I  . .",
"U R R T J S S K K L W [ R R K D K T Q Q D K K Y K D Q Q K Q } R R T W T U Q Q ~ K D K R ~ R E ! Q K T E T T ~ ! Q ! W W T ! ! W ",
"J S D K U R J K R S U R T R Q T ~ K K K S K T T D D s 4 w w w w w w i 4 4 ` Q T D D E [ R T Q Q  .E W Q ! ! E E E [ W  . .T D E ",
"U D T K J J K [ W J J R U K E T K K K Q R ~ R y r q 3 6 3 1 6 1 3 3 1 6 3 w r r V !  .} T T ~ |  .R W W ! W I T W W  .Q ! E T T ",
"T T T U K S A R [ R J W K K K Q D F D ~ ` a a 3 1 2 5.j.h.z.C.V.C.C.C.Z.Z.l 2 1 4 a / ~ K Q ! ! W T W T E ! T  .[ W } W W E ! W ",
"S S J J S A A J U R T K D K K Q Q D D P y 2 6 7.y.9.M.E.(._.{.{.'.'.'.'.'.C.i.B.-.< 3 ; D Q Q ! E ! ! W ! T E W W T [ ! E R R E ",
"S A J T T S A U T T T D K R T T T T H e 9 5.0.G.H.E.E.~.`.`.~.`.~.`.`.}.}. X X{.A.u.,.5 ; T T } Q ! Q W W E U E U U T W E R Y I ",
"J A R R T U U R W K K T Q ! W D I P e 0 6.J.J.G.I.~.`.`.`.`.`.`.`.`.`. X X X@X@XOX+XU.*.5 B I Q T T R W W E T T D D T W R R E U ",
"J J R T T T E R R U T ! W ! Q I P t 0 6.J.G.F.I.`.`.`.~.`.`.`.~.`.!.^.}. X X*X:X:X=X+XU.n 4 B T K W W W R W T W T E } ! E U I E ",
"Y R R R J J T R R R R ! R T D E d 2 *.J.K.K.G._.`.`.~.`.`.`.~.`.`.`.~.~.}.XX$X*X-X>X=X{.U.6 6 R T R Y } ! Q ! W R  .[ U K U W } ",
"T K D U K U R Y J R  .R T D K R a 9 :.J.G.G.L._.`.`.~.~.~.`.~.`.`.`.~.~._.}. X X%X-X=X X/.b 7 H T U Y W ! W W W E R ! R T R [ [ ",
"! J I R [ R S J R W W T T T ! a 1 >.H.K.G.H.`.`.`.~.`.`.`.`.`.`.`.~.~.`.`._.}..X.X.X.X}.`./.7 3 [ E T W R D D J D Y E ! ! W R W ",
"| T K R } R T R T K D D R T R y 1 :.H.G.G.L.`.`.`.`.`.!.!.T.!.`._.`.`.~.`._.`.`.`.).!.!.`./.u 3 _ E U } { U I W E Y K Q ! K T Q ",
"R T R R T W  .W Y U J K W E a 3 :.F.G.K.L._.`.`.~.`.`.q.u u ,.~._.~._.~.~._._.`.`.i.u -.`.`.U.u 3 C I T Y R ! E U Y T ! R E ! } ",
"[ Y Y W R R R R R U D E E I t 1 7.J.G.G.L.`.`.`._.'.1.% o o.,X*.`._._._._._._.'.r.# O.,X' `._.h 3 H E E T E ! R E R R T W U R W ",
"K L K R Y T W W W K R K U I t 2 6.J.G.G.L.`.`._.`.`.-.# X , > a `._._._._.`.~.'.e.. : m u `.).8 1 _ E Y R R T R Y R U I U E R W ",
"T R J Y [ Y R Y T K } R R R y 2 6.J.G.K.L.`.`._._.'.*.# O X . d `.~.~.~.~.~.~.'.w.. O o b ).~.i.0 _ R R W E D K T U E E Y U U U ",
"! R Y [ [ Y T U K E R E W [ y 1 6.H.G.G.L.`.`.`._.`.*.# X O . s `.`.~.`._._.~.'.e.  O o u ~.`.L.l V T R R K K T Y T Y R [ E Y E ",
"! Q R R R U R R R W Y R R } a 1 6.J.G.K.L.`._._.`.`.V.f o   & p._._.~._._._.].'.D.d . $ u.~.`.G.j H U T R D U ! J R K K U R R W ",
"Q T R L Y U R [ [ [ [ W E W y 2 6.J.G.G.L.`.`.`._._.'.V.<.] p.'._.'._.]._._._.~.{.D.] r.'.`._.I.l p L W W R T W J K K K U W T U ",
"| } R [  .R R [ [ } | W D I y 2 6.J.H.G.L.(.`._._._._.`.'.'.^.`.Y.V._.'.^.'.'.'.S.S.'.'._._.~._.b 1 / W  .[ R T U T K K [ } W E ",
"} } } R [ [ } [ [ R R [ T P q h y.H.H.G.G.H._._._._._._.].~.~.].A.' C.Z.C.Z.Z.Z.q.t.'._._._._._.b 1 ( E W [ R R W Y T R R R } ! ",
"} R R T [ } } E K R R U ! w 1 y.J.H.H.H.G.G._._._._._._.~._.~.~.`.R.b k l k k u t.'._.~._._._._.*.6 / T U T W W W R T T U T W R ",
"T T R [ } R T R E R W R K w 9 h.H.G.H.H.G.P._._._._._._.~._.~.~._._.!.!.!.!.!.!.!.~.~.~.~._._.`._.' 1 ^ Y Y R R Y T Y W [ U D D ",
"T T T R W R U T T T T R w 6 y.K.H.G.H.G.H.G.L.~.~.~._._.~.~.~.~.~._._._._.`._._.~.~.~.~.~.~._.`.'.' 2 ^ U I T D U R W W E Y T T ",
"| | R [ } W T R R U K J 4 1 h.P.G.H.G.G.H.G.H.~._.~._._.~.`.~.~.~.~.~.~.~.~.~.~.~.~.~.~.~._.}.`.`.' 1 / E R R Y J T W } W E W W ",
"W R W R W W [ [ R Y U e 3 3.M.H.H.G.H.G.H.G.H.I.(._._._.`.~._.~.~.~.~.~.~.~.~.~.~._._.~._.`.XX`._.R.' 5 ^ E ! T U U R E U R R U ",
"U Y U U R E W W T R Y 3 5 s.K.H.H.H.F.b.H.G.G.G.~._._._.~.~._.~.~.~._._.~.~._._.~.~.~.~.~._..X}.`.'.-.< = T Q Q Y W W U Y Y E U ",
"W W R W R R [ } R L a 7 2.l.F.P.G.H.M.b.H.G.G.G.L._._._.~.~.~.~._._.].~.~._.~.~.~._._._.~._..XXX@XoXZ.' 4 B I E R  .W W W R U T ",
"R [ R T T W [ W E L 6 6 l.n.F.H.G.F.b.c.G.G.G.G.G.I._._.~.`.~.`._.~.~.~.~._._._.~.~._._._.`.XXXX-XoX[.q.2 t I E K W R W R T J U ",
"T W U I U Q ! E L s 6 $.k.H.H.G.L.M.x.b.H.H.H.H.G.G.I.~.`.~.~.~._._.~.~._.~.~._._.~._._.`.`.}.XX-X@X}.z.j p E U K U U Y R Y R R ",
"} R Y R T T R E V 1 8 k.v.F.G.H.K.b.x.c.F.H.G.H.P.G.G.I.W.W.~.~._._.~._._.~._._._._._._.!.E.`. X=X;XOXQ.8.e H F T R J R [ U R W ",
"} R W R K Y Y S ; 6 +.l.c.F.F.F.b.x.x.x.b.G.H.L.H.G.G.G.G.I.W.~._.~.~._.~._.~.~._._.].W.E.L.~. X X*XOXI.y.0 4 P R E T D T D S K ",
"! W } R U R E M 1 h c.c.k.c.k.c.x.x.c.x.c.G.G.G.G.H.H.G.G.G.L.~.~._._._.~.~.~.~.~.W.E.G.G.P.W.`.}.=XOXE.J.9.1 i } U S K J K T T ",
"K R R W T E W / 1 h x.c.x.c.c.c.c.c.c.c.x.b.G.P.H.G.P.P.L.L.G.H.P.W.W.~.W.~.~.~.I.G.H.G.H.G.P.W.`.`.`.E.J.0.3 i W U T U U [ R R ",
"} ~ T } Q T W ( 1 h k.c.c.c.c.c.c.c.x.x.x.c.G.G.P.G.W.~.`.E.G.P.H.H.P.G.H.G.H.P.G.G.G.G.H.G.G.G.~.`.I.G.N.4.1 w K T W R W [ R T ",
" .} R R R [ W B 3 0 g.k.c.c.c.c.x.c.x.c.c.c.k.G.G.G.G.E.`.~.~.W.H.H.H.P.G.G.G.G.G.G.G.G.H.H.H.G.P.P.G.G.b.&.3 i R J S U U J W W ",
"K [ R R } } Y R / 6 j a.k.c.c.c.f.s.a.f.v.c.k.b.G.P.G.P.I.P.P.L.H.G.H.G.G.H.P.H.P.G.G.b.b.b.b.G.H.H.P.F.3.9 y L U T D W T D D U ",
"R [ U K Q ! R E V 6 6 z a.f.d.d.a.&.0 z #.d.c.x.v.b.G.H.G.G.G.G.H.G.G.H.G.H.J.P.F.v.s.v v @.x.n.n.n.N.3.8 6 w I A S R Y I A A U ",
"R R R W R T U D G d 3 3 x x x x c 0 3 1 6 x #.a.c.v.b.b.F.P.P.G.H.P.H.H.P.m.N.0.@.c j 1 1 6 n @.@.@.#.0 1 w G D S D T U I S A A ",
"E K W Y R T Y J I K - - 3 1 1 1 1 1 4 ; t 1 3 c #.%.f.b.n.N.N.N.m.m.m.m.m.4.%.0 1 1 4 ; - = 1 1 1 2 2 t - C I U Y T E I J U U J ",
"R J K K K R R L T E R E g p p p = = ; K P = t 5 1 5 @.2.;.;.;.;.;.;.;.;.;.9 1 q s p B D D A s p s p p C E U S T E U Y U Y D U T ",
"R A Z A K T S K } Q Q Q E D F D D D D D D A Z * t t 5 1 1 1 1 1 3 3 1 3 1 y t V U T D K ~ D E E T T E T R T J T S S S W R S A U ",
"K A A K K S K T Q K A K U K D ~ Q K D D T D A A D I s r e e q r w e q q r C I J R R T T T K } Q T !  .[ E U K T Y I E T E D D D ",
"G D U R K A K R L K G D K T Q K K K Q Q Q T L R K K K K Q K A A A K A A R S K [ [ K D D D R } T W } } R T ! R K I Y W R W R U D ",
"U W T D A A J J K T K K A Q Q ! K D K K K T K D F D D Q Q Q K S K R U T T L K A A D D T ~ K ! R T Q E K T R Q W U Y K R [ W R R ",
"Y R T A T Y U T R D A K J Y R Q K L R J J A Z A A J S G K Y R K Q } Q R S A D K K J K } R W K } T U D U W [ W W U I J T E D U W ",
"T Y K J J J J R T K S K R [ Y [ K A J A A Z A R K K R R J S J K T K G R K T | Q K K R R K W W T K ! W }  .[ E Y F S D R J T J J ",
"Q Q K J J R K J R Y R D K S L R K T U J A Z Z L A K J A A J Y R K K A K K Y K R R T T T K T R U D T Y R W E Y E U W R J S J R W ",
"R K K S L K S S A J L D K A J J T J J L G K K Z A R A Z Z S Y Y Y J K K R J J J K L U W R K T T T T U Y Y Y W E U R J J U J J R ",
"A J K A K R K A A K L Y Y G A A S S A A A A R D J T D A Z S U J Y R A A A S J S J S K R T T T T R K S J J U W U R U A T T U Y T ",
"K K S G K R K K G J D K K A S A K D A Z N Z A A A L K A S U J A L K K A Z J S J D S J J J W W T R K A A A E U S R R J R U T U T ",
"R K K K K K G J K A A A A J J K K K A A N N N A J K L A S J A D T R Y K A J S S T J J S J R R K J U D A D U J J U Y R R S J R Y ",
"K K R R T D A A J J E G K A L R G A G N Z Z A L K A J G Z A S D K L Y U S U G S L Y K J J J T S A Y J D J J K R L R R R K K R Y "
};
