/* XPM */
static char *blob_xpm[] = {
"64 64 32 1",
"a c #2d9bb9",
"b c #32a9c0",
"c c #36b6c3",
"d c #30a5ba",
"e c #2487ae",
"f c #45bac4",
"g c #63c6c7",
"h c #56c1c6",
"i c #2da2a5",
"j c #219c59",
"k c #4fa7ae",
"l c #2bc558",
"m c #5ad350",
"n c #76e250",
"o c #4bd151",
"p c #afe991",
"q c #d3edba",
"r c #8fe46d",
"s c #19bc5b",
"t c #e5ecdf",
"u c #12884f",
"v c #27604e",
"w c #4d7365",
"x c #a1abb3",
"y c #133043",
"z c #54a64b",
"A c #677984",
"B c #0c2b3d",
"C c #3ed156",
"D c #19c05c",
"E c #1c7d8a",
"F c #217ea0",
"aaabcccdaaaaaaaaaabbdaadcccbdaaaaaaaaadddaeaadddddaaaaaaaaadddda",
"affgghghfffffffffhhhfaffhghgffffffffffffffafcffffffffffffffffffa",
"ahghhhhhhfffffccfffffdfghfffffccccccccffcfafhfffffhfcccccccffcfa",
"bhhfffhhfcccccccfffcfahhfccffccccccccccccfafffccfffcccccccccccca",
"bgfffhhffcfccccffcccfagfccffcccccccccccccfaffccffccccccccffcccfa",
"bghfhhfffcccccffccccfagfcffccccccccccccccfaffcffccccccccccccccca",
"bghhhffffccccfffcccffahfcfcccccccccccccccfaffffcccccccccccccccfa",
"bhhhffffcccccfccccfffaffcccccccccccccccccfafffccccccccccccccccfa",
"afhffcfccccffcccccfffaffcccccccccfcccccccfaffcccccccccccccccccfa",
"afffccccccffcccccfcffafccccccccffcccccccccaffcccccccffccccccccfa",
"affccccccfffccccfcccfafcccccccffccccccccccaffccccccffcccccccccfa",
"afffccccfffcccccccccfafcccccccfcccccccccccaffcccccffccccccccccfa",
"affccccfffcccccccccffafccccccfccccccccccccafccccccfcccccccccccfa",
"afccccfffcccccccccfffafcccccccccccccccccffafcccccccccccccccccffa",
"dfcccfffcccccccccffffafccccccccccccccccfffafcccfccccccccccccfffa",
"bfccffccccccccccfffcfafccciiddddiiiiiifccfafcfffcccccccccccfccfa",
"bffffccccccccccfffccfafciijjjjjjjjjjjjiicfaffffcccccccccccffccfa",
"bhfffcccccccccffccccfakijjjlmmmmmmmlljjjcfafffcccccccccccfccccfa",
"bhfccccccccccffcccccfajjlmmnnnnnnnooomljjjaffcccccccccccfcccccfa",
"bhfccccffccccfcccccfkjjonnnnnnnnnnnmoooomjjkfccccccccccfcccccffa",
"dhfffffffffffffffffkjjonpqrnnnnnnnnnnmooomjjkffffffffffccffffffa",
"eaaddaaaaaaaaaaaaaajjonpqqrnnnnnnnnnnnmooomljaaaaaaaaaaaaaaaaaae",
"afffgghffffffffffdjjonpqqrnnnnnnnnnnnnnmooolsjkffccffccccccffffa",
"afghfffffccccccccijmmnqtpnnnnnnnnnnnnnnnmoooljdfccccccccccccccfa",
"bhhfccffccccccccdjjmnnrrnnnnnnnnnnnnnnnnnoooljjdccccccccccccccfa",
"bgfccffccccccccfdjonnnnnnnnnnnnnnnnnnnnnnmoooluifcccccicccccccfa",
"bgfcffccccccccfdjjonnnnnnnnnnnnnnnnnnnnnnnoooljjdcccciccccccccfa",
"bgfffccccccccffijlmnnnnvvvmnnnnnnnnnnmvvvmooomljdcccccccccccccfa",
"dhffcccccccccffijonnnnwxvyvznnnnnnnnzwkyyvmoooludcccccccccccccfa",
"affccccccccfccdjjonnmzvtAByznnnnnnnnzwtyyyjoooljjdccccccccccccfa",
"afccccccccffccijCmnnmyykvyyznnnnnnnnzvAyyyvmoolDuiccccccccccccfa",
"afcccccccffcccijomnnmyyByyyznnnnnnnnzyByyyymoolDudccccccccccccfa",
"afccccccffccccijomnnmvyyyyvznnnnnnnnzvyyyyvmoolDudccccccccccccfa",
"dfcccccffccccijjomnnnlvyyvjmnnnnnnnnojvyyvlooolDjidccccccccccffa",
"bfccccffccccciujomnnnnlvvjnnnnnnnnnnnnjvvjoooolsDuicccccccccccfa",
"bhccccccccccijjlooonnnnnnnnnnnnnnnnnnnnnnooooolsDjjdccccccccfcfa",
"bfcccccccccciuloooomnnnnnnnnnnnnnnnnnnmmooooomlssDjicccccccfccfa",
"dfffccccccccijlooooomnnnnnnnnnnnnnnnnnooooooolsssDjiccccccccccfa",
"bhfcccccccccijloooooomnnnnnnnnnnnnmooooooooomlsssDjiccccccccccfa",
"bhfccccccccciuloooooooomnnnnnnnmooooooooooomlssssDjicccccccccffa",
"dhfcccffcccciuslooooooooooooooooooooooooooolsssDssuiccccccccfffa",
"dffffffffffdeijlmoooooooooooooooooooooooomlsDDssjjjidcfffffffffa",
"eaaaaaaaaaaaeEujsloooooooooooooooooooomllDsDDDsjjuEFeaaaaaaaaaae",
"affhghfffffdaeiujjslllmoooooooooollllllDssDsjjjjuEeeaffffccffffa",
"afghfffffcfcdeeEuujjDDllllllllllllssDDDDsjjjjjjuveedccccccccccfa",
"dhhfccffcccccdaFFiuuuujsDDDDDDDDDDDDsjjjjjuuuuiEFedcccccccccccfa",
"bgfccffccccccccdeeEEEEuuuuuuuuuuuuuuuuuuuuEEEEeeacccccccccccicfa",
"dgfcffccccccccfcddaeeeiEEEEEEEEEEEEEEEEEEEeeedddccccccccccciicfa",
"dhfffccccccccccccccddabeeeeeeeeeeeeeeeeeedaddcfccccccccccciiccfa",
"afffcccccccccccccccffafddddddddddddddddddfaffcccccccccccccccccfa",
"affcccccccccccccccccfafccccccccccccccccccfafccccccccccccccccccfa",
"afccccccccfcccccccccfafccccccccccccccccccfafccccccccccccccccccfa",
"afcccccccfccccccccccfacccccccccccccccccccfafccccccccccccccccccfa",
"afccccccccccccccccccfafccccccccccccccccccfafccccccccccccccccccfa",
"afccccccccccccccccccfafcccccccccccccccccffacccccccccccccccccccfa",
"afcccccccccccccccccffafcccccccccccccccccffafccccccccccccccccccfa",
"afcccfccccccccccccfcfafccccccccccccccccccfafccccccccccccccccccfa",
"dfccfcccccccccccccccfacccccccccccccccccccfafccccccccccccccccccfa",
"dffffcccccccccccfcccfacccccccccccccccccccfafccccccccccccccccccfa",
"dfffcccccccccccfccccfafccccccccccccccccccfafccccccccccccccccccfa",
"bhfcccccccccccfcccccfafcccccccccccccccccffafcccccccccccccccccffa",
"dhfccccccccccfccccccfafcccccccccccccccccffafccccccccccccccccfffa",
"dffffffffffcfffccffccaffccfffffccffffffcccaffffffffffcfffffffcca",
"eaaaaaaaaaaaaaaaaaaaaeaaaaaaaaaaaaaaaaaaaaeaaaaaaaaaaaaaaaaaaaaa"
};