/* XPM */
static char *player_on_grass[] = {
/* columns rows colors chars-per-pixel */
"64 64 194 2 ",
"   c #02050E",
".  c #070A0F",
"X  c #0C0E0D",
"o  c #160909",
"O  c #0F100F",
"+  c #260B09",
"@  c #2C1F0E",
"#  c #391909",
"$  c #2B250F",
"%  c #3E2F0B",
"&  c #3F330C",
"*  c #3D3C0E",
"=  c #3C3D10",
"-  c #1E2120",
";  c #242525",
":  c #312E32",
">  c #470500",
",  c #480800",
"<  c #4C0D00",
"1  c #471604",
"2  c #4D1202",
"3  c #4B1C05",
"4  c #521402",
"5  c #5B1701",
"6  c #551B04",
"7  c #5B1A02",
"8  c #631D02",
"9  c #472407",
"0  c #4C2207",
"q  c #442509",
"w  c #4A2608",
"e  c #452C0A",
"r  c #4A2B0A",
"t  c #5D2404",
"y  c #512709",
"u  c #42340C",
"i  c #4A310D",
"p  c #42390E",
"a  c #49380F",
"s  c #56350A",
"d  c #463C10",
"f  c #642304",
"g  c #6E2403",
"h  c #652B04",
"j  c #6B2B04",
"k  c #742503",
"l  c #792703",
"z  c #752905",
"x  c #7C2803",
"c  c #6C3305",
"v  c #7F3006",
"b  c #3F440F",
"n  c #254E11",
"m  c #3D4311",
"M  c #354C13",
"N  c #394C13",
"B  c #275113",
"V  c #2B5615",
"C  c #275817",
"Z  c #2E5A16",
"A  c #2E5C19",
"S  c #335416",
"D  c #3A5216",
"F  c #385517",
"G  c #315D17",
"H  c #325E19",
"J  c #3B5D1A",
"K  c #2E611A",
"L  c #336117",
"P  c #3A6417",
"I  c #35631A",
"U  c #3A651C",
"Y  c #36681D",
"T  c #3C6A1D",
"R  c #3C6621",
"E  c #356820",
"W  c #3D6B21",
"Q  c #43430E",
"!  c #434411",
"~  c #434A13",
"^  c #445419",
"/  c #425C1A",
"(  c #7A4106",
")  c #6E5710",
"_  c #416C1E",
"`  c #42701F",
"'  c #426E22",
"]  c #436E29",
"[  c #437123",
"{  c #45732A",
"}  c #4A7328",
"|  c #564C4C",
" . c #812C04",
".. c #843206",
"X. c #8B3506",
"o. c #8C3C07",
"O. c #913907",
"+. c #9E3A05",
"@. c #824606",
"#. c #844B06",
"$. c #854F0C",
"%. c #994B07",
"&. c #9E4108",
"*. c #9E4E08",
"=. c #8E550B",
"-. c #83590C",
";. c #9A5908",
":. c #A34509",
">. c #A74709",
",. c #AB4B09",
"<. c #A65007",
"1. c #A55408",
"2. c #A95709",
"3. c #AB5909",
"4. c #B15709",
"5. c #B25D09",
"6. c #9C6509",
"7. c #866810",
"8. c #896B10",
"9. c #9A7710",
"0. c #A66D0A",
"q. c #B9630A",
"w. c #AD740A",
"e. c #BB7D0B",
"r. c #A17C10",
"t. c #C34D06",
"y. c #CC5207",
"u. c #C8570A",
"i. c #D25608",
"p. c #D45A09",
"a. c #C36A0B",
"s. c #C96F0B",
"d. c #DB650E",
"f. c #DC660D",
"g. c #C6790C",
"h. c #E0670E",
"j. c #E26A0E",
"k. c #E86C0E",
"l. c #E5730D",
"z. c #EB760E",
"x. c #E37E0D",
"c. c #ED7C0E",
"v. c #F07B0E",
"b. c #BD840C",
"n. c #C58B0C",
"m. c #C98F0D",
"M. c #CB910D",
"N. c #D59B0D",
"B. c #D69B0C",
"V. c #C99910",
"C. c #EC830D",
"Z. c #EF8B0D",
"A. c #F0840E",
"S. c #F18D0D",
"D. c #F88F0F",
"F. c #EF940E",
"G. c #F1930E",
"H. c #F19C0E",
"J. c #DDA40E",
"K. c #E1A60E",
"L. c #E4A90F",
"P. c #E9AE0F",
"I. c #F4A50F",
"U. c #FAA30E",
"Y. c #F3AC0F",
"T. c #ECB00F",
"R. c #F4B50F",
"E. c #F8BA0F",
"W. c #E3AA10",
"Q. c #F5AD10",
"!. c #EEB310",
"~. c #F4B610",
"^. c #F8B310",
"/. c #F5B910",
"(. c #FABC10",
"). c #FFC10E",
"_. c #FCC411",
"`. c #FACB16",
"'. c #F9C81B",
"]. c #FDD316",
"[. c #FCD519",
"{. c #FDD81A",
"}. c #FAC922",
"|. c #FFD225",
" X c #F9D12D",
".X c #FBDA36",
"XX c #FDE12E",
"oX c #FDE235",
"OX c #FDE647",
"+X c #FDED4D",
"@X c #FEF055",
"#X c #FEF55E",
"$X c #FEF766",
"%X c #A58F86",
/* pixels */
"] Y I A I T L A V I Y L I A Y ] R C A I Y [ { T W W T W T Y L I Y W { { T T W W Y Y E ' [ W ' I I I W } } [ Y L Y Y { Y _ T ] } ",
"U H Z V Z A H H I I L T I I A V V V I T T [ { [ W Y Y W T Y T [ W Y U T T K K Y L Y Y H Y E I T R W W Y [ W Y K L K K Z W H L U ",
"G L V H L Y L Z A L I U E R H V C A I I L Y Y ` W L T T R Y Y { [ _ P Y Y K K Y T W Y Z A H Y U ] ] Y L W Y Y T W Y Z K I A C H ",
"I L V I U A Z L L L _ L H R A L I Y R U I T L _ L K P T Y K Y W T T T W G Y L Y T [ ' P Y Y U U Y W E I T Y W [ Y T T Y K Z A L ",
"G L L G L L L I U A U J A H H ] ] _ I I T W L H K C L I L I T Y R Y L R L K Y I I W [ U L Y Y R H Y W [ W Y T W Y U T U W Y L Y ",
"Z I L V G P P P Z V H U A H H R R H I U T E R H L C L I Y T T Y I L K I K Y Y P A L T I C A A R U R W [ W W T T Y P L P T T L A ",
"U J I V Z Z G L V G H P A I R H H H E I I L U R U A I W W T Y K K A Y I I [ W Y A C L I T I L Y W ] R E Y W T Y A A K A K Y L A ",
"' U I H V V Z G U H H U H R U H H H H A H H A ' T Y T T W W U T T K A C E W ' [ R A A Y ' T R U W ' I I T Y W T L V Z L Z P Y P ",
"G Z G I H H I U G V T P U H Z H A I E H R U U E Y U Y I E W R ' W L I K A A I W W U I Y R H R R W W T T T W W T T Y Y P C L T T ",
"V Z I G A H U ' U G I I L G I I A A H H R ' J A Z I T T I I R H Y R ] W I A W ' W U _ R H J E R [ R E R Y Y T T P U [ K L A T [ ",
"L L Z U H V H U U G L H H H I H I A H R H A Z V Z R R Y K I Y U U I T E E A I Y Y U _ R U ' U T T R E E U U Y W L Y T Y K I [ [ ",
"L U U I G Z Z H H J T _ U U H A H U R R Z H H U A A R U H R R U R I U I K R R I H A H U E R I W R L I I L Y E W R W T T I W W T ",
"G Z A H L U G H U Z L U I U R I H R H H A H I I A A p 3 0 0 0 6 0 0 y 3 3 / R I A A T T U T R R [ I E W W W Y Y I T T ` [ Y A Y ",
"L A I H G G H _ T G G U L H Y I H A H H U E U r w 9 2 4 < 4 2 2 2 2 < 4 2 0 w 0 m W W W Y L E ] [ T T T W R K I _ ' ' W T I I Y ",
"I I I L H Z V U _ U G T H H H R A A A E R r r 2 < , 1.s.a.g.m.m.m.m.m.M.m.j , < 0 i ! E A R W W T I U Y U T I [ [ Y ' R Y T W T ",
"Z Z G G Z V V G L U I H A H H R R H A F r , 4 3.q.5.x.I.Q.~.(._.(.(.(.(.(.m.b.b.$.> 1 d A W R W U W W T T Y Y T T I _ W Y I T I ",
"Z V G I I Z V L I I I A H U I I I I D q 5 1.4.Z.S.I.I.~./././././././.`.`.].]._.B.w.=.1 = I I ' T R R ' T Y I I L L I T U U I L ",
"G V U U I L L U T H H I R W T A K F q 8 2.D.D.Z.H.~././././.!././.R./.[.[.[.XX.X X|.J.@.< m K W I I I T U Y I Y A A Y T U U K L ",
"G G U I I I Y U U L I W T W R K F e 8 2.D.Z.C.H./././././././././.R./.`.[.[.+X$X$X+X}.J.c 6 m I H U T T T U Y U I Y ' T T K I Y ",
"P U U U G G I U U U U W U I A Y a , @.D.A.A.Z.~././.R.R./.~.~.~.R./.R.R._.[.oX+X@X$XOX_.W.6 4 H Y U T _ T W W U U [ _ L G L W [ ",
"I H A L H L U P G U [ U I A H U i 5 *.D.Z.Z.F.~././././.~.~./././.R./.~.R.`.[.[..X@XOX].W.c 6 D I L L T ` T W T Y U W I I U T _ ",
"W G K U _ U Z G U T T I I I W i < %.S.A.Z.S./././.R.R./././././.R./.~.~./.~.`.].[.[.[.`./.W.t 2 P T I T U G A A A P Y W W T U T ",
"] I H U ' U I U I H A A U I U r < *.S.Z.Z.F./././././.T.P.P.!./.~.~.~.~./.R./././.T.T.T./.W.h 2 / I L W _ H L T U P G R W H I W ",
"U I U U I T [ T P L G H T Y i 2 *.C.Z.A.F.~././.R././.6.t t =.!./.~.~.~.R././././.e.t $.!.~.J.t 2 M I Y U U W Y L I I ' U Y W ' ",
"_ P P T U U U U U L A Y Y K e < 3.D.Z.Z.F./././.~.(.;.# o | %X#./.T.~.~./.~.~.(.9.+ | %X#./.!.h 2 N Y I I I W U I T T Y I L T T ",
"H J H U P I T T T H U H L K e , 2.D.Z.Z.F././.~././.$.+ X ; : s /./.~.~.~.R./.(.8.  - : h !.T.t < ^ T U U U Y U P T L A L Y U T ",
"I U G P _ P U P I H ' U U U r , 2.D.Z.A.F././.~.~.(.@.+ O X . a /.R.R.R.R.R.R.(.8.. O o h T./.a.f ^ U U T Y A H L L Y Y I P L L ",
"W U P _ _ P I L H Y U Y T _ r < 2.S.Z.Z.F./././.~./.@.+ X O . p /./.R./.R.R.^.(.7.  O o h T./.G.j N I U Y L H I P Y P U T P U P ",
"W R U U U L U U U T P U U ' i < 2.D.Z.A.F./.~.~././.n.s o   $ r.~.~.R.~.~./.R.(.V.a   @ w.!./.Z.g N I I U A L W L I H H L I T T ",
"R I U J P L U _ _ _ _ T Y T r , 2.D.Z.Z.F./././.~.~.(.n.-.) r.(./.(.~.R.~.~.~.~._.B.) 9._.~.~.H.j u J U T U I T G H H H I T I L ",
"] ' U _ [ U U _ _ ' ] T A K r , 2.D.S.Z.F.Q./.~.~.~.~./.(.(.E./.L.n.^.(.^.(.(.(.B.B.(.(.~.~./.R.c < ~ T [ _ U I L I H H _ ' T I ",
"' ' ' U _ _ ' _ _ U U _ I F 9 f q.S.S.Z.Z.S.~.~.~.~.~.~.^.R.R.^.B.( m.M.M.m.M.M.6.0.E.~.~.~.~.R.c < ~ Y T _ P U W P I U U T W ' ",
"' U U I _ ` ' I L U U I W y < q.D.Z.Z.Z.Z.S.~.R.~.~.~.~.R.~.R.R./.K.c h h h h t 0.(.~.R.~.~.~.~.@.4 ! I L I T T T P U P L U U T ",
"I I U ' ' T I U Y U T U J 0 4 a.G.Z.S.Z.Z.S.~./.~.~.~.~.R.~.R.R.~.R.T.T.T.R.T.T.T.R.R.R.R.~.~.~.~.( < Q P P U U P Y I T T L Z A ",
"I I U U T P H I I L Y G 9 < q.A.Z.Z.S.F.Z.Z.S.~.R.R.~.~.R.R.R.R.R.~.~.~.~.~.~.~.R.R.R.R.R.R.~.~._.( , Q L K I G I U T T P Y I I ",
"[ ] P T ' W U U U I I G 2 4 a.G.Z.Z.S.Z.S.S.G.R.~.R.~.~.~.~.R.R.R.R.R.R.R.R.R.R.R.R.R.R.R.~.]././.v < ! Y U U I G H T ' T U T U ",
"U U T I T T T T U P G r 2 ,.x.S.S.S.S.S.S.Z.S.F.Q.~.~.~.~.~.~.R.R.R.R.R.R.R.R.R.R.~.~.R.~./.[././.J.( 3 b Y W L L L U Y L U P Y ",
"I U L I U U T ` I Y U 2 1 u.A.S.Z.S.C.l.G.Z.S.Z.R.~.~.~.R.~.~.R.R.^.~.~.R.R.~.~.R.R.R.R.~./.[.]./._.$., * K R U T T T L Y P P L ",
"T T U T U I T ' U J r 6 :.d.C.Z.S.S.x.j.S.Z.Z.Z.F.R.~.~.~.~.R.R.~.~.~.R.R.~.R.R.R.~.~.~.~.~.[.[..X}.M.v 3 m Y I U ' T T T I K I ",
"U T U U U T ` T T J 2 4 d.z.Z.S.S.C.l.l.Z.Z.Z.Z.Z.H.~.~.R./.R.R.~.R.R.R.R.~.~.~.~.~.^.~.~.~.[.{.@X}.).6.> e K Y L U U T U U A L ",
"U U I L L R W Y J p 4 o.f.Z.S.Z.S.x.h.l.S.S.S.S.Z.Z.H.R.R.R.R.R.~.~.R.R.~.R.R.~.~.R.~.~.R./.`.[.@X.X'.g.g u Y I H L L P U U P I ",
"' U L U I I U Y N < 7 f.k.C.S.S.C.l.h.j.C.S.Z.S.G.Z.Z.I.Y.Y./.R.~.~.R.~.~.R.~.~.~.~.~./.R.P./.[.OX#X XU.<.q D V H U L U T U U _ ",
"' U T U L I P V = 4  .d.j.C.C.C.l.h.j.h.l.Z.S.Z.S.Z.Z.Z.Z.F.R./.~.R.R.~.R.~.R.R.~.~.^.Y.I.S.R.`.[.+X XI.5.f 3 F T I I A H A Z G ",
"T T ' T Y U U b < f j.j.j.f.f.j.h.h.j.h.l.C.S.F.Z.S.S.Z.Z.Z.F.Y.R.~.~.~.R.R.R.R.R.Y.I.Z.Z.Z.R./.`.OX|.H.D.5.< y ' L Z L L H I I ",
"H _ U T L R T ! < f h.j.j.h.j.j.h.j.j.j.h.j.F.S.S.Z.G.G.F.S.Z.Z.G.Y.Y.R.Y.R.R.R.H.Z.S.Z.S.Z.G.R./././.H.D.5.< y _ H L L L T U T ",
"_ E I T U I T ~ < f f.j.j.j.j.j.j.j.h.j.h.j.Z.Z.S.Z.Y.R./.Q.S.Z.S.S.G.Z.S.Z.Z.G.Z.Z.Z.S.Z.G.Z.Z.R./.H.Z.v.>.< 9 A Y U T T _ U I ",
"] ' T U T _ T m 2 8 t.f.h.j.j.j.j.h.j.j.h.j.j.Z.S.S.S.P./.R.~.Q.S.S.S.G.Z.S.Z.S.Z.S.S.Z.Z.Z.S.Z.G.G.G.S.l.+.< y U G Z L L G U T ",
"H P I U ' _ U U ! 4 g u.h.j.j.j.p.y.y.p.j.j.f.l.Z.S.S.S.H.F.F.F.S.Z.Z.S.Z.Z.G.Z.S.S.C.l.l.l.l.Z.S.S.S.C.,.5 r J I I A T I Z G I ",
"U _ L H R W T Y N 4 4 k y.p.p.y.y.+.8 k X.i.k.h.k.l.A.G.S.S.S.S.S.S.S.S.S.S.S.D.v.k.4.z z ..f.z.z.z.v.,.7 2 r K V Z U P K V Z A ",
"' U U T U I H A S p 2 2 l l l x x 8 2 2 4 l X.u.h.k.l.l.A.S.S.S.S.Z.S.S.S.C.v.4... .k < < 4 ........X.8 < 0 N A L Z I L L A V V ",
"Y H T P H U J G L H * * < < < 2 < 2 3 = e , 2 x X.O.p.k.z.c.c.c.c.c.c.c.c.>.O.8 < < 3 = * & , < < < < e * M K I P Y I A A L P Z ",
"U G H Z I U U P I U Y Y d u u u & & = H S & e 2 < 1 ..:.&.&.&.+.&.&.&.&.&.7 , w p u m H A C d u u & e M Y L A L L Y L L P A L I ",
"U V V V H U Z H ' R J R Y C C H A A A A A C V % % u 1 , < < < < 2 < 2 < < e e M I I H H Y C T Y I I Y I U I A L Z Z Z T U Z Z K ",
"H V V H H V H H R H A A I H H H R H A A H Z Z V A H p 0 r w 9 9 w 9 9 9 0 S L H U P H I I A ' R Y W [ ' Y L I I P K Y I Y A Z Z ",
"G H H U G V I U J H Z A H I R E A H R R R I J I H H H E E H V Z Z H V C I Z J U U H A A A T ' Y T W ' I L ' U H K P T U T U L G ",
"G T I V V V G G H H H H Z R R R H H H H H H J V C A A J R U H Z H P I I J U Z Z H Z H Y R H R I I R Y H I U R T L P H U _ T U U ",
"P U H Z I P L U U H Z Z H _ U U H J U G G V V V V G G A H P G H R ' U U S Z A A H H H R U U I ' I H A Y T T T T L K A I I A L T ",
"I P H Z Z Z L U I H Z H R P P _ H V G V V B V U H H J U G G G G H H A U H U ' R H H _ U H W T I L T T W [ T T Y C Z A U L I G I ",
"W R H G L U G G U P U Z H A J U H I G Z V V V H V H V V V G U U H H V H H U J I P U I I H U U L A I Y U ` P P P P T U G Z G U U ",
"H H H S U H Z Z V S U H G V S H U G G J S A H n S U V V n G P P P H H H U Z G H H H L T U H G I U H L P P P T I L I G G L G L U ",
"A G H S H U H C Z H J P U S V V G V V V B Z J A Z I A V B Z G G U U V V V Z G Z Z G H U I I I L U H Z G Z L T L U L V I I P L I ",
"H G G V H U H S H V G H G V Z V F A V V n n Z V Z H J V G G G G I J V V B G Z G A Z G G G T T I U H V V V Y P Z U U H U G I P I ",
"U H H H H H A G H V V V A S G H H A Z V n n n Z G H J V G G Z V U H U G V G Z Z I H G Z G U U H Z L A V A L A L L P U U G Z I P ",
"H H U U J A V V G S U V H G G U A V S n B B V J H V G V B V V G H U P L G L Z S J P H G G G I Z Z P G A G G H U J U U P H G U U "
};
